<?xml version="1.0" encoding="UTF-8" standalone="no"?>
<!-- Created with Inkscape (http://www.inkscape.org/) -->

<svg
   xmlns:dc="http://purl.org/dc/elements/1.1/"
   xmlns:cc="http://creativecommons.org/ns#"
   xmlns:rdf="http://www.w3.org/1999/02/22-rdf-syntax-ns#"
   xmlns:svg="http://www.w3.org/2000/svg"
   xmlns="http://www.w3.org/2000/svg"
   xmlns:sodipodi="http://sodipodi.sourceforge.net/DTD/sodipodi-0.dtd"
   xmlns:inkscape="http://www.inkscape.org/namespaces/inkscape"
   width="372.04724"
   height="524.40942"
   id="svg5344"
   version="1.1"
   inkscape:version="0.48.5 r10040"
   sodipodi:docname="chapter.svg">
  <defs
     id="defs3">
    <clipPath
       clipPathUnits="userSpaceOnUse"
       id="clipPath5030">
      <path
         d="m 0,0 297.638,0 0,419.528 L 0,419.528 0,0 z"
         id="path5032"
         inkscape:connector-curvature="0" />
    </clipPath>
    <clipPath
       clipPathUnits="userSpaceOnUse"
       id="clipPath5040">
      <path
         d="m 0,419.528 297.638,0 L 297.638,0 0,0 0,419.528 z"
         id="path5042"
         inkscape:connector-curvature="0" />
    </clipPath>
    <clipPath
       clipPathUnits="userSpaceOnUse"
       id="clipPath5048">
      <path
         d="m 18.141,325.55 75.521,0 0,74.56 -75.521,0 0,-74.56 z"
         id="path5050"
         inkscape:connector-curvature="0" />
    </clipPath>
    <clipPath
       clipPathUnits="userSpaceOnUse"
       id="clipPath5062">
      <path
         d="m 198.425,325.55 75.521,0 0,74.56 -75.521,0 0,-74.56 z"
         id="path5064"
         inkscape:connector-curvature="0" />
    </clipPath>
    <clipPath
       clipPathUnits="userSpaceOnUse"
       id="clipPath5076">
      <path
         d="m 198.425,19.55 75.521,0 0,74.561 -75.521,0 0,-74.561 z"
         id="path5078"
         inkscape:connector-curvature="0" />
    </clipPath>
    <clipPath
       clipPathUnits="userSpaceOnUse"
       id="clipPath5090">
      <path
         d="m 18.141,19.55 75.521,0 0,74.561 -75.521,0 0,-74.561 z"
         id="path5092"
         inkscape:connector-curvature="0" />
    </clipPath>
  </defs>
  <sodipodi:namedview
     inkscape:document-units="mm"
     id="base"
     pagecolor="#ffffff"
     bordercolor="#666666"
     borderopacity="1.0"
     inkscape:pageopacity="0.0"
     inkscape:pageshadow="2"
     inkscape:zoom="1.5132085"
     inkscape:cx="149.46939"
     inkscape:cy="189.4193"
     inkscape:current-layer="g3323"
     showgrid="false"
     units="mm"
     width="105mm"
     inkscape:snap-bbox="true"
     inkscape:snap-bbox-midpoints="true"
     inkscape:snap-nodes="true"
     inkscape:bbox-nodes="true"
     inkscape:object-nodes="true"
     inkscape:window-width="1920"
     inkscape:window-height="1174"
     inkscape:window-x="0"
     inkscape:window-y="12"
     inkscape:window-maximized="0"
     inkscape:snap-smooth-nodes="false"
     inkscape:object-paths="false" />
  <metadata
     id="metadata4">
    <rdf:RDF>
      <cc:Work
         rdf:about="">
        <dc:format>image/svg+xml</dc:format>
        <dc:type
           rdf:resource="http://purl.org/dc/dcmitype/StillImage" />
        <dc:title></dc:title>
      </cc:Work>
    </rdf:RDF>
  </metadata>
  <g
     inkscape:label="Layer 1"
     inkscape:groupmode="layer"
     id="layer1"
     transform="translate(0,-527.95271)">
    <g
       id="g3323">
      <path
         inkscape:connector-curvature="0"
         id="path7765-42"
         d="m 260.34375,561.4375 c 0.45911,0.77001 1.95548,2.78495 5.46875,2.9375 2.17795,0.0948 3.76912,-0.37305 5.40625,-0.96875 1.63713,-0.5957 3.34082,-1.32671 5.71875,-1.75 a 0.25559412,0.25559412 0 0 1 0.25,0.125 0.25559412,0.25559412 0 0 1 0.0312,0.125 0.25559412,0.25559412 0 0 1 -0.0312,0.125 0.25559412,0.25559412 0 0 1 -0.15625,0.125 c 0,0 -0.88427,0.25382 -1.75,0.90625 -0.83959,0.63273 -1.62652,1.59943 -1.5625,3.0625 0.18192,0.0758 0.74874,0.26768 1.75,0.3125 1.19218,0.0534 2.86303,-0.18017 4.78125,-1.34375 3.25828,-1.97637 6.84958,-2.92541 13.6875,-3.3125 a 0.25559412,0.25559412 0 0 1 0.125,0.0312 0.25559412,0.25559412 0 0 1 0.125,0.25 0.25559412,0.25559412 0 0 1 -0.0312,0.0937 0.25559412,0.25559412 0 0 1 -0.15625,0.125 0.25559412,0.25559412 0 0 1 -0.0312,0 c 0,0 -2.63961,0.40653 -3.5625,2.84375 0.49992,-0.0444 2.37903,-0.17108 5.03125,0.71875 0.049,-0.1069 0.0587,-0.1503 0.21875,-0.375 0.25296,-0.35511 0.67429,-0.8356 1.34375,-1.3125 1.33893,-0.9538 3.69439,-1.93018 7.6875,-2.125 a 0.25559412,0.25559412 0 0 1 0.125,0.0312 0.25559412,0.25559412 0 0 1 0.125,0.25 0.25559412,0.25559412 0 0 1 -0.0312,0.0937 0.25559412,0.25559412 0 0 1 0,0.0312 c 0,0 -0.96068,1.32275 -0.90625,2.625 0.0818,-0.0779 0.12663,-0.12955 0.25,-0.21875 0.54223,-0.39206 1.5169,-0.89654 3.34375,-1.375 3.62842,-0.9503 10.62808,-1.833 24.0625,-1.6875 l 0.0312,-0.34375 -71.34375,0 z m 73.4375,0 0,2.1875 a 0.25559412,0.25559412 0 0 1 0,0.0625 0.25559412,0.25559412 0 0 1 -0.125,0.15625 0.25559412,0.25559412 0 0 1 -0.0937,0.0312 0.25559412,0.25559412 0 0 1 -0.0312,0 l -1.34375,0 0,1.59375 a 0.25559412,0.25559412 0 0 1 0,0.0625 0.25559412,0.25559412 0 0 1 -0.125,0.15625 0.25559412,0.25559412 0 0 1 -0.0937,0.0312 0.25559412,0.25559412 0 0 1 -0.0312,0 l -1,0 0,1.5625 1.5625,0 0,-1 a 0.25559412,0.25559412 0 0 1 0,-0.0625 0.25559412,0.25559412 0 0 1 0.125,-0.15625 0.25559412,0.25559412 0 0 1 0.0937,-0.0312 0.25559412,0.25559412 0 0 1 0.0312,0 l 1.59375,0 0,-1.34375 a 0.25559412,0.25559412 0 0 1 0,-0.0625 0.25559412,0.25559412 0 0 1 0.125,-0.15625 0.25559412,0.25559412 0 0 1 0.0937,-0.0312 0.25559412,0.25559412 0 0 1 0.0312,0 l 2.1875,0 0,-3 -3,0 z m 3,5.09375 -0.34375,0.0312 c 0.1455,13.43442 -0.7372,20.43408 -1.6875,24.0625 -0.47846,1.82685 -0.98294,2.80152 -1.375,3.34375 -0.0892,0.12337 -0.14085,0.16818 -0.21875,0.25 1.30225,0.0544 2.625,-0.90625 2.625,-0.90625 a 0.25559412,0.25559412 0 0 1 0.1875,-0.0312 0.25559412,0.25559412 0 0 1 0.0937,0.0312 0.25559412,0.25559412 0 0 1 0.125,0.15625 0.25559412,0.25559412 0 0 1 0,0.0625 c -0.19482,3.99311 -1.1712,6.34857 -2.125,7.6875 -0.4769,0.66946 -0.95739,1.09079 -1.3125,1.34375 -0.2247,0.16007 -0.2681,0.16971 -0.375,0.21875 0.88983,2.65222 0.76312,4.53133 0.71875,5.03125 2.43722,-0.92289 2.84375,-3.5625 2.84375,-3.5625 a 0.25559412,0.25559412 0 0 1 0.0312,-0.0937 0.25559412,0.25559412 0 0 1 0.25,-0.125 0.25559412,0.25559412 0 0 1 0.0937,0.0312 0.25559412,0.25559412 0 0 1 0.125,0.15625 0.25559412,0.25559412 0 0 1 0,0.0625 c -0.38709,6.83792 -1.33613,10.42922 -3.3125,13.6875 -1.16358,1.91822 -1.39712,3.58907 -1.34375,4.78125 0.0448,1.00126 0.23668,1.56808 0.3125,1.75 1.46307,0.064 2.42977,-0.72291 3.0625,-1.5625 0.65243,-0.86573 0.90625,-1.75 0.90625,-1.75 a 0.25559412,0.25559412 0 0 1 0.1875,-0.1875 0.25559412,0.25559412 0 0 1 0.28125,0.125 0.25559412,0.25559412 0 0 1 0.0312,0.125 0.25559412,0.25559412 0 0 1 0,0.0312 c -0.42329,2.37793 -1.1543,4.08162 -1.75,5.71875 -0.5957,1.63713 -1.06359,3.2283 -0.96875,5.40625 0.15255,3.51327 2.16749,5.00964 2.9375,5.46875 l 0,-71.34375 z m -61.65625,1.25 c -0.52326,-0.0606 -1.12315,0.13096 -1.65625,0.6875 -0.53309,0.55655 -0.99974,1.49642 -1.15625,2.9375 -0.22888,2.10378 0.32365,3.74313 1.375,5 1.05135,1.25687 2.62237,2.1261 4.4375,2.5625 1.50605,0.36221 2.89282,0.24709 4.0625,-0.0625 0.79266,-0.17181 1.5671,-0.44205 2.3125,-0.75 0.74885,-0.3099 1.47511,-0.65402 2.1875,-1.03125 1.42662,-0.7621 2.77711,-1.54718 4.15625,-2.34375 1.37242,-0.80138 2.76796,-1.6191 4.1875,-2.3125 0.42749,-0.20677 0.88528,-0.41491 1.3125,-0.59375 a 0.25559412,0.25559412 0 0 1 0.0312,0 0.25559412,0.25559412 0 0 1 0.125,0 0.25559412,0.25559412 0 0 1 0.15625,0.125 0.25559412,0.25559412 0 0 1 0.0312,0.125 0.25559412,0.25559412 0 0 1 -0.15625,0.21875 c -0.55641,0.25708 -1.08547,0.54556 -1.59375,0.84375 -5.6526,3.31549 -6.28683,7.63083 -5.4375,10.34375 0.69641,2.22472 2.36051,2.80949 3.5625,2.4375 0.601,-0.186 1.10469,-0.6112 1.3125,-1.25 0.20781,-0.6388 0.13801,-1.49438 -0.4375,-2.5625 -0.75277,-1.39774 -0.54363,-3.46008 0.53125,-5.40625 1.07488,-1.94617 3.0189,-3.79755 5.875,-4.78125 4.56163,-1.57222 7.97766,-0.31173 9.71875,0.71875 a 0.25559412,0.25559412 0 0 1 0.0312,0.0312 c 0.14673,0.1164 0.18119,0.21337 0.1875,0.21875 0.57427,0.48873 1.11162,1.04555 1.5625,1.65625 0.90039,1.22582 1.54228,2.6445 1.9375,4.125 a 0.25559412,0.25559412 0 0 1 0,0.0625 0.25559412,0.25559412 0 0 1 -0.28125,0.25 0.25559412,0.25559412 0 0 1 -0.0937,-0.0312 0.25559412,0.25559412 0 0 1 -0.0937,-0.0625 c -0.12576,-0.17452 -0.25429,-0.35044 -0.40625,-0.5 -0.53564,-0.5275 -1.12117,-0.76098 -1.625,-0.78125 -0.50383,-0.0203 -0.90188,0.15208 -1.09375,0.46875 -0.22327,0.36846 -0.21795,0.65837 -0.0312,0.9375 0.1867,0.27913 0.60407,0.55262 1.25,0.71875 1.10672,0.28475 1.86236,0.80168 2.34375,1.46875 0.36978,0.51296 0.45346,1.09212 0.46875,1.53125 8e-5,-0.002 0.002,0.018 0,0.0625 a 0.25559412,0.25559412 0 0 1 -0.0312,0.125 0.25559412,0.25559412 0 0 1 -0.1875,0.125 c -0.53668,0.0961 -1.06735,0.24393 -1.59375,0.40625 -0.40262,0.12476 -0.78023,0.25256 -1.15625,0.40625 -0.37401,0.15596 -0.75439,0.3372 -1.125,0.53125 -0.37607,0.1978 -0.71877,0.37955 -1.0625,0.59375 -0.34101,0.21596 -0.66816,0.4736 -1,0.71875 -0.66096,0.48562 -1.31024,1.01489 -1.875,1.59375 -1.13862,1.16086 -2.0747,2.49715 -2.71875,3.96875 -0.13556,0.30675 -0.20564,0.64643 -0.3125,0.96875 0.14703,-0.303 0.27492,-0.61831 0.4375,-0.90625 0.78899,-1.39066 1.85479,-2.619 3.03125,-3.65625 0.28461,-0.25174 0.55001,-0.538 0.875,-0.78125 0.32075,-0.24272 0.64939,-0.41908 0.96875,-0.625 0.31514,-0.20475 0.61252,-0.42729 0.96875,-0.625 0.34916,-0.19361 0.72444,-0.34403 1.0625,-0.5 0.33923,-0.15575 0.68294,-0.36492 1.0625,-0.5 0.3766,-0.13789 0.76568,-0.21673 1.125,-0.3125 0.36304,-0.0966 0.73882,-0.15614 1.09375,-0.21875 a 0.25559412,0.25559412 0 0 1 0.25,0.125 0.25559412,0.25559412 0 0 1 0.0312,0.125 0.25559412,0.25559412 0 0 1 0,0.0312 c -0.0626,0.35494 -0.12219,0.73071 -0.21875,1.09375 -0.0958,0.35932 -0.17461,0.7484 -0.3125,1.125 -0.13508,0.37956 -0.34427,0.72327 -0.5,1.0625 -0.15597,0.33804 -0.30637,0.71334 -0.5,1.0625 -0.19771,0.35624 -0.42026,0.65362 -0.625,0.96875 -0.20593,0.31937 -0.3823,0.64801 -0.625,0.96875 -0.24327,0.32502 -0.52961,0.59039 -0.78125,0.875 -1.03725,1.17647 -2.26565,2.24223 -3.65625,3.03125 -0.28794,0.16258 -0.60325,0.29047 -0.90625,0.4375 0.32233,-0.10686 0.66201,-0.17694 0.96875,-0.3125 1.4716,-0.64406 2.80789,-1.58013 3.96875,-2.71875 0.57886,-0.56476 1.10811,-1.21404 1.59375,-1.875 0.24514,-0.33183 0.50279,-0.659 0.71875,-1 0.21419,-0.34374 0.39595,-0.68644 0.59375,-1.0625 0.19405,-0.37061 0.37529,-0.75098 0.53125,-1.125 0.15369,-0.37601 0.28149,-0.75363 0.40625,-1.15625 0.16232,-0.5264 0.3101,-1.05707 0.40625,-1.59375 a 0.25559412,0.25559412 0 0 1 0.0312,-0.0937 0.25559412,0.25559412 0 0 1 0.15625,-0.125 0.25559412,0.25559412 0 0 1 0.0625,0 c 0.0445,-0.002 0.064,-7e-5 0.0625,0 0.43913,0.0153 1.01829,0.099 1.53125,0.46875 0.66707,0.48139 1.184,1.23703 1.46875,2.34375 0.16613,0.64607 0.43964,1.06334 0.71875,1.25 0.27911,0.18666 0.56902,0.19203 0.9375,-0.0312 0.31667,-0.19188 0.48902,-0.58992 0.46875,-1.09375 -0.0203,-0.50383 -0.25375,-1.08936 -0.78125,-1.625 -0.14956,-0.15196 -0.32547,-0.28048 -0.5,-0.40625 a 0.25559412,0.25559412 0 0 1 -0.0625,-0.0937 0.25559412,0.25559412 0 0 1 -0.0312,-0.125 0.25559412,0.25559412 0 0 1 0.0312,-0.125 0.25559412,0.25559412 0 0 1 0.25,-0.125 0.25559412,0.25559412 0 0 1 0.0312,0 c 1.4805,0.39522 2.89919,1.03712 4.125,1.9375 0.61071,0.45089 1.16752,0.98823 1.65625,1.5625 0.005,0.006 0.10234,0.0406 0.21875,0.1875 a 0.25559412,0.25559412 0 0 1 0.0312,0.0312 c 1.03048,1.74109 2.29097,5.15712 0.71875,9.71875 -0.9837,2.8561 -2.83508,4.80012 -4.78125,5.875 -1.94617,1.07488 -4.00851,1.28402 -5.40625,0.53125 -1.06812,-0.57551 -1.9237,-0.64531 -2.5625,-0.4375 -0.6388,0.20781 -1.064,0.7115 -1.25,1.3125 -0.37199,1.20199 0.21277,2.86609 2.4375,3.5625 2.71291,0.84932 7.02826,0.21509 10.34375,-5.4375 0.2982,-0.5083 0.58667,-1.03734 0.84375,-1.59375 a 0.25559412,0.25559412 0 0 1 0.25,-0.15625 0.25559412,0.25559412 0 0 1 0.0937,0.0312 0.25559412,0.25559412 0 0 1 0.125,0.15625 0.25559412,0.25559412 0 0 1 0,0.125 0.25559412,0.25559412 0 0 1 0,0.0312 c -0.17884,0.4272 -0.38698,0.885 -0.59375,1.3125 -0.6934,1.41954 -1.51111,2.81507 -2.3125,4.1875 -0.79657,1.37914 -1.58166,2.72962 -2.34375,4.15625 -0.37722,0.7124 -0.72135,1.43865 -1.03125,2.1875 -0.30795,0.7454 -0.57819,1.51984 -0.75,2.3125 -0.30959,1.16968 -0.4247,2.55645 -0.0625,4.0625 0.4364,1.81513 1.30563,3.38615 2.5625,4.4375 1.25687,1.05135 2.89622,1.60388 5,1.375 1.44108,-0.15651 2.38095,-0.62316 2.9375,-1.15625 0.55655,-0.53309 0.74814,-1.133 0.6875,-1.65625 -0.0399,-0.34453 -0.21367,-0.66109 -0.4375,-0.875 -0.43882,-0.41986 -1.00546,-0.54987 -1.6875,-0.375 -0.68204,0.17487 -1.45959,0.65733 -2.125,1.4375 -1.06143,1.24404 -2.13672,1.13944 -2.625,0.9375 a 0.25559412,0.25559412 0 0 1 -0.125,-0.125 0.25559412,0.25559412 0 0 1 -0.0312,-0.0937 0.25559412,0.25559412 0 0 1 0.125,-0.25 0.25559412,0.25559412 0 0 1 0.125,-0.0312 0.25559412,0.25559412 0 0 1 0.0625,0 c 0.9002,0.27218 2.18137,-1.18416 1.03125,-2.4375 -0.44278,-0.48293 -1.12369,-0.56476 -1.90625,-0.75 -0.78256,-0.18524 -1.65277,-0.53187 -2.28125,-1.5625 -0.72332,-1.18679 -0.63438,-2.80677 -0.40625,-4.1875 a 0.25559412,0.25559412 0 0 1 0,-0.0625 c 0.39594,-0.99525 0.88726,-1.96528 1.4375,-2.90625 0.8027,-1.37266 1.7177,-2.70476 2.5625,-4.0625 0.58006,-0.93552 1.14568,-1.87869 1.6875,-2.84375 a 0.25559412,0.25559412 0 0 1 0.0937,-0.0937 0.25559412,0.25559412 0 0 1 0.125,-0.0312 0.25559412,0.25559412 0 0 1 0.25,0.28125 0.25559412,0.25559412 0 0 1 -0.0312,0.0625 c -2.05407,4.41949 -3.73639,8.61905 -3.125,11.8125 0.4039,2.10982 1.82774,2.87561 2.90625,2.84375 0.53926,-0.0159 0.9774,-0.23611 1.1875,-0.5625 0.2101,-0.32639 0.23354,-0.78782 -0.15625,-1.4375 -1.14671,-1.91143 -1.5656,-3.44779 -1.375,-5.40625 0.1906,-1.95846 0.95741,-4.34117 2.15625,-8.03125 1.1511,-3.5421 1.24518,-6.72401 1.03125,-9.09375 a 0.25559412,0.25559412 0 0 1 0,-0.0312 c 0.009,-0.37148 0.0197,-0.73891 0,-1.09375 -5.6e-4,-0.0101 6.2e-4,-0.0211 0,-0.0312 -0.0541,-0.81821 -0.21831,-1.66657 -0.4375,-2.46875 -0.22014,-0.80756 -0.5177,-1.56773 -0.90625,-2.3125 -0.19349,-0.37279 -0.42674,-0.74798 -0.65625,-1.09375 a 0.25559412,0.25559412 0 0 1 0,-0.0312 c -0.043,-0.0666 -0.11167,-0.11195 -0.1875,-0.21875 a 0.25559412,0.25559412 0 0 1 0,-0.0312 l -0.0625,-0.0937 0,-0.0312 -0.0937,-0.0937 c -0.11992,-0.16179 -0.26384,-0.36256 -0.40625,-0.53125 -0.54657,-0.64663 -1.17049,-1.18597 -1.84375,-1.6875 -2.51214,-1.85645 -5.67261,-2.75337 -8.75,-2.5625 a 0.25559412,0.25559412 0 0 1 -0.28125,-0.28125 c 0.19087,-3.0774 -0.70605,-6.23786 -2.5625,-8.75 -0.50152,-0.67325 -1.04087,-1.29718 -1.6875,-1.84375 -0.16868,-0.14242 -0.36947,-0.28635 -0.53125,-0.40625 l -0.0937,-0.0937 -0.0312,0 -0.0937,-0.0625 a 0.25559412,0.25559412 0 0 1 -0.0312,0 c -0.10689,-0.0759 -0.15213,-0.14452 -0.21875,-0.1875 a 0.25559412,0.25559412 0 0 1 -0.0312,0 c -0.34578,-0.22952 -0.72096,-0.46276 -1.09375,-0.65625 -0.74477,-0.38855 -1.50495,-0.68611 -2.3125,-0.90625 -0.80218,-0.21918 -1.65054,-0.38337 -2.46875,-0.4375 -0.0102,-6.2e-4 -0.0211,5.6e-4 -0.0312,0 -0.35483,-0.0197 -0.72227,-0.009 -1.09375,0 a 0.25559412,0.25559412 0 0 1 -0.0312,0 c -2.36974,-0.21393 -5.55166,-0.11986 -9.09375,1.03125 -3.69008,1.19883 -6.07279,1.96565 -8.03125,2.15625 -1.95846,0.1906 -3.49482,-0.22829 -5.40625,-1.375 -0.64968,-0.38979 -1.11111,-0.36635 -1.4375,-0.15625 -0.32639,0.2101 -0.54657,0.64824 -0.5625,1.1875 -0.0319,1.07851 0.73393,2.50235 2.84375,2.90625 3.19345,0.61139 7.393,-1.07093 11.8125,-3.125 a 0.25559412,0.25559412 0 0 1 0.125,-0.0312 0.25559412,0.25559412 0 0 1 0.0937,0.0312 0.25559412,0.25559412 0 0 1 0.125,0.15625 0.25559412,0.25559412 0 0 1 0,0.125 0.25559412,0.25559412 0 0 1 -0.125,0.15625 c -0.96507,0.54182 -1.90824,1.10744 -2.84375,1.6875 -1.35774,0.84481 -2.68984,1.7598 -4.0625,2.5625 -0.94097,0.55024 -1.911,1.04155 -2.90625,1.4375 a 0.25559412,0.25559412 0 0 1 -0.0625,0 c -1.38073,0.22813 -3.00071,0.31707 -4.1875,-0.40625 -1.03063,-0.62848 -1.37726,-1.49869 -1.5625,-2.28125 -0.18524,-0.78256 -0.26706,-1.46347 -0.75,-1.90625 -1.25335,-1.15013 -2.70969,0.13095 -2.4375,1.03125 a 0.25559412,0.25559412 0 0 1 0,0.125 0.25559412,0.25559412 0 0 1 -0.125,0.15625 0.25559412,0.25559412 0 0 1 -0.0937,0.0312 0.25559412,0.25559412 0 0 1 -0.28125,-0.15625 c -0.20194,-0.48829 -0.30653,-1.56357 0.9375,-2.625 0.78018,-0.66541 1.26263,-1.44296 1.4375,-2.125 0.17487,-0.68204 0.0449,-1.24868 -0.375,-1.6875 -0.21391,-0.22383 -0.53048,-0.39763 -0.875,-0.4375 z m 54.375,0.9375 c -2.10683,0.68859 -2.89293,1.98256 -3.125,2.4375 a 0.25559412,0.25559412 0 0 1 -0.15625,0.125 0.25559412,0.25559412 0 0 1 -0.125,0 0.25559412,0.25559412 0 0 1 -0.15625,-0.125 0.25559412,0.25559412 0 0 1 -0.0312,-0.0937 0.25559412,0.25559412 0 0 1 0,-0.125 c 0.36913,-0.87717 0.1336,-1.5613 -0.15625,-2.0625 -0.16609,2.0269 -1.5938,2.9687 -1.5938,2.9687 a 0.25559412,0.25559412 0 0 1 -0.0937,0.0312 0.25559412,0.25559412 0 0 1 -0.21875,-0.0937 c -0.51007,-0.63886 -1.17759,-0.75338 -1.75,-0.71875 -0.27413,0.0166 -0.50732,0.0734 -0.6875,0.125 1.06009,1.13983 1.23394,2.43706 1,3.375 -0.12779,0.51237 -0.35725,0.91218 -0.625,1.15625 -0.13388,0.12203 -0.27474,0.22755 -0.46875,0.21875 -0.19401,-0.009 -0.35866,-0.1644 -0.4375,-0.34375 -1.10866,-2.52008 -3.0823,-3.16194 -4.8125,-3.21875 -1.44183,-0.0473 -2.49624,0.30603 -2.875,0.4375 3.23789,3.96387 3.11023,8.42391 3.0625,9.15625 0.73233,-0.0477 5.19237,-0.17539 9.15625,3.0625 0.13147,-0.37876 0.48484,-1.43317 0.4375,-2.875 -0.0568,-1.7302 -0.69867,-3.70384 -3.21875,-4.8125 -0.17935,-0.0788 -0.33495,-0.24349 -0.34375,-0.4375 -0.009,-0.19401 0.0967,-0.33488 0.21875,-0.46875 0.24407,-0.26775 0.64388,-0.49721 1.15625,-0.625 0.93794,-0.23393 2.23517,-0.0601 3.375,1 0.0516,-0.18018 0.10841,-0.41337 0.125,-0.6875 0.0346,-0.57242 -0.0799,-1.23993 -0.71875,-1.75 a 0.25559412,0.25559412 0 0 1 -0.0937,-0.125 0.25559412,0.25559412 0 0 1 0,-0.125 0.25559412,0.25559412 0 0 1 0.0312,-0.0625 c 0,0 0.94179,-1.42771 2.96875,-1.59375 -0.50121,-0.28985 -1.18536,-0.52536 -2.0625,-0.15625 a 0.25559412,0.25559412 0 0 1 -0.0312,0 0.25559412,0.25559412 0 0 1 -0.125,0 0.25559412,0.25559412 0 0 1 -0.15625,-0.125 0.25559412,0.25559412 0 0 1 -0.0312,-0.0937 0.25559412,0.25559412 0 0 1 0.125,-0.25 c 0.45495,-0.23207 1.74891,-1.01817 2.4375,-3.125 z m -26.0625,6.09375 c -0.68827,-0.0389 -1.42988,0.11016 -2.125,0.5 -1.23623,0.69356 -1.375,2.03125 -1.375,2.03125 a 0.25559412,0.25559412 0 0 1 0,0.0312 0.25559412,0.25559412 0 0 1 -0.125,0.15625 0.25559412,0.25559412 0 0 1 -0.0937,0.0312 0.25559412,0.25559412 0 0 1 -0.0937,0 c -1.4566,-0.4663 -2.95893,-0.0793 -3.9375,0.75 -0.58915,0.49924 -0.99307,1.1397 -1.09375,1.84375 -0.0702,0.49038 0.0714,1.03804 0.5625,1.46875 0.49106,0.43071 1.36788,0.76105 2.84375,0.75 0.9837,-0.008 2.23895,-0.17891 3.78125,-0.5625 4.19159,-1.04207 7.34073,-0.51715 8.96875,-0.0937 -0.5581,-0.49767 -1.01988,-1.01998 -1.28125,-1.53125 -0.40451,-0.79127 -0.46532,-1.61066 -0.375,-2.5 0.0949,-0.9347 -0.0659,-1.56607 -0.34375,-1.9375 -0.27783,-0.37143 -0.69665,-0.53002 -1.28125,-0.5 -0.5633,0.0291 -0.79411,0.27579 -0.9375,0.53125 -0.14339,0.25546 -0.15625,0.5 -0.15625,0.5 a 0.25559412,0.25559412 0 0 1 -0.0312,0.125 0.25559412,0.25559412 0 0 1 -0.25,0.125 0.25559412,0.25559412 0 0 1 -0.0937,-0.0312 0.25559412,0.25559412 0 0 1 -0.125,-0.125 c -0.347,-0.8765 -1.29544,-1.4979 -2.4375,-1.5625 z M 287.90625,577.5 c -0.4716,0.26659 -0.8575,0.52799 -1.4375,0.8125 -2.03428,0.99787 -4.59546,1.96323 -6.78125,1.78125 -0.75849,-0.0632 -1.17242,0.0854 -1.3125,0.21875 -0.0802,0.0764 -0.1062,0.11462 -0.0937,0.1875 0.0125,0.0729 0.0782,0.19845 0.21875,0.3125 0.28118,0.22811 0.86672,0.44407 1.71875,0.4375 1.64622,-0.0127 4.29308,-0.88375 7.6875,-3.75 z m 0.90625,0.84375 c -1.73994,2.21713 -2.29606,3.95924 -2.25,5.21875 0.0597,1.6322 1.07925,2.43075 1.59375,2.4375 0.13577,0.002 0.20476,-0.0534 0.28125,-0.15625 0.11726,-0.15776 0.19192,-0.54708 -0.0937,-1.21875 -0.98008,-2.30398 -0.32389,-4.59605 0.46875,-6.28125 z m 18.625,3.78125 c -5.2788,-0.21905 -9.04381,2.22444 -11.34375,4.40625 -1.16597,1.10612 -1.81594,1.96789 -2.21875,2.5625 2.5593,-0.92172 4.75,0.375 4.75,0.375 a 0.25559412,0.25559412 0 0 1 0.125,0.25 0.25559412,0.25559412 0 0 1 -0.0312,0.0937 0.25559412,0.25559412 0 0 1 -0.15625,0.125 0.25559412,0.25559412 0 0 1 -0.125,0 0.25559412,0.25559412 0 0 1 -0.0312,0 c -1.64883,-0.6112 -3.73134,0.18606 -4.78125,1.4375 -0.80252,0.957 -0.98852,2.14919 -0.78125,3.21875 0.20727,1.06956 0.82405,2.00893 1.5625,2.4375 1.92581,1.11714 3.375,-0.0312 3.375,-0.0312 a 0.25559412,0.25559412 0 0 1 0.0312,-0.0312 0.25559412,0.25559412 0 0 1 0.125,-0.0312 0.25559412,0.25559412 0 0 1 0.25,0.28125 0.25559412,0.25559412 0 0 1 -0.0312,0.0937 0.25559412,0.25559412 0 0 1 -0.0312,0.0312 c -0.37661,0.45195 -0.88245,0.69683 -1.5,0.84375 -0.61755,0.14692 -1.36937,0.21235 -2.25,0.375 -1.64543,0.30498 -2.78146,1.85221 -2.40625,4.25 0.28527,1.82727 0.21213,2.91529 0.1875,3.25 0.33471,-0.0246 1.42273,-0.0978 3.25,0.1875 2.39777,0.37521 3.94501,-0.76082 4.25,-2.40625 0.16265,-0.88063 0.22808,-1.63246 0.375,-2.25 0.14692,-0.61754 0.3918,-1.12339 0.84375,-1.5 a 0.25559412,0.25559412 0 0 1 0.0937,-0.0625 0.25559412,0.25559412 0 0 1 0.125,0 0.25559412,0.25559412 0 0 1 0.15625,0.125 0.25559412,0.25559412 0 0 1 0.0312,0.0937 0.25559412,0.25559412 0 0 1 -0.0625,0.1875 c 0,0 -1.14837,1.44923 -0.0312,3.375 0.42857,0.73845 1.36794,1.35523 2.4375,1.5625 1.06956,0.20727 2.26175,0.0213 3.21875,-0.78125 1.25145,-1.0499 2.0487,-3.13242 1.4375,-4.78125 a 0.25559412,0.25559412 0 0 1 0,-0.0937 0.25559412,0.25559412 0 0 1 0.0312,-0.125 0.25559412,0.25559412 0 0 1 0.25,-0.125 0.25559412,0.25559412 0 0 1 0.0937,0.0312 0.25559412,0.25559412 0 0 1 0.0937,0.0937 c 0,0 1.29669,2.1907 0.375,4.75 0.59461,-0.40281 1.45638,-1.05278 2.5625,-2.21875 2.18184,-2.2999 4.6253,-6.06495 4.40625,-11.34375 -0.0452,-1.08906 -0.26166,-2.24841 -0.5625,-3.46875 -0.29748,0.88631 -0.92881,2.5554 -2.59375,4.625 -2.2081,2.74478 -5.9602,5.52235 -11.96875,5.65625 a 0.25559412,0.25559412 0 0 1 -0.0312,0 0.25559412,0.25559412 0 0 1 -0.0937,-0.0312 0.25559412,0.25559412 0 0 1 -0.0625,-0.0625 0.25559412,0.25559412 0 0 1 -0.0312,0 0.25559412,0.25559412 0 0 1 0,-0.0312 0.25559412,0.25559412 0 0 1 -0.0312,-0.0312 0.25559412,0.25559412 0 0 1 -0.0937,-0.125 0.25559412,0.25559412 0 0 1 0,-0.0625 c 0.1339,-6.00855 2.91147,-9.76065 5.65625,-11.96875 2.0696,-1.66494 3.73869,-2.29627 4.625,-2.59375 -1.22034,-0.30084 -2.37969,-0.51732 -3.46875,-0.5625 z m 9.0625,5.34375 c 0.4234,1.62802 0.94832,4.77716 -0.0937,8.96875 -0.38362,1.5424 -0.55569,2.79793 -0.5625,3.78125 -0.0111,1.47587 0.31929,2.35269 0.75,2.84375 0.43071,0.49106 0.97837,0.63272 1.46875,0.5625 0.70405,-0.10068 1.34451,-0.5046 1.84375,-1.09375 0.82918,-0.97859 1.2163,-2.48091 0.75,-3.9375 a 0.25559412,0.25559412 0 0 1 0,-0.125 0.25559412,0.25559412 0 0 1 0.125,-0.15625 0.25559412,0.25559412 0 0 1 0.0937,-0.0312 c 0,0 1.33769,-0.13877 2.03125,-1.375 0.38984,-0.69513 0.53886,-1.43673 0.5,-2.125 -0.0646,-1.14205 -0.68599,-2.0905 -1.5625,-2.4375 a 0.25559412,0.25559412 0 0 1 -0.0312,-0.0312 0.25559412,0.25559412 0 0 1 -0.125,-0.15625 0.25559412,0.25559412 0 0 1 0,-0.125 0.25559412,0.25559412 0 0 1 0.125,-0.15625 0.25559412,0.25559412 0 0 1 0.0937,-0.0312 0.25559412,0.25559412 0 0 1 0.0312,0 c 0,0 0.24454,-0.0128 0.5,-0.15625 0.25546,-0.1434 0.50213,-0.37421 0.53125,-0.9375 0.03,-0.5846 -0.12857,-1.00342 -0.5,-1.28125 -0.37143,-0.27783 -1.0028,-0.43864 -1.9375,-0.34375 -0.88934,0.0903 -1.70873,0.0295 -2.5,-0.375 -0.51127,-0.26137 -1.03358,-0.72315 -1.53125,-1.28125 z m 3.375,21.9375 c -1.6852,0.79264 -3.97727,1.44883 -6.28125,0.46875 -0.54024,-0.22977 -0.92962,-0.25515 -1.125,-0.1875 -0.19538,0.0676 -0.25243,0.17696 -0.25,0.375 0.007,0.5145 0.8053,1.53406 2.4375,1.59375 1.25951,0.0461 3.00162,-0.51006 5.21875,-2.25 z m 0.84375,0.90625 c -2.86625,3.39441 -3.73732,6.04127 -3.75,7.6875 -0.007,0.85203 0.20939,1.43757 0.4375,1.71875 0.11405,0.14059 0.23961,0.2063 0.3125,0.21875 0.0729,0.0124 0.11111,-0.0136 0.1875,-0.0937 0.13335,-0.13994 0.28196,-0.554 0.21875,-1.3125 -0.18197,-2.18579 0.78338,-4.74697 1.78125,-6.78125 0.28451,-0.58 0.54591,-0.9659 0.8125,-1.4375 z"
         style="fill:#000000;fill-opacity:1;stroke:none" />
      <path
         inkscape:connector-curvature="0"
         id="path7765-4-3"
         d="m 111.7188,1018.9063 c -0.45911,-0.77 -1.95548,-2.785 -5.46875,-2.9375 -2.17795,-0.095 -3.76912,0.3731 -5.40625,0.9687 -1.637131,0.5957 -3.34082,1.3267 -5.71875,1.75 a 0.25559412,0.25559412 0 0 1 -0.25,-0.125 0.25559412,0.25559412 0 0 1 -0.0312,-0.125 0.25559412,0.25559412 0 0 1 0.0312,-0.125 0.25559412,0.25559412 0 0 1 0.15625,-0.125 c 0,0 0.88427,-0.2538 1.75,-0.9062 0.83959,-0.6328 1.626519,-1.5995 1.562499,-3.0625 -0.18192,-0.076 -0.748739,-0.2677 -1.749999,-0.3125 -1.19218,-0.053 -2.86303,0.1801 -4.78125,1.3437 -3.25828,1.9764 -6.84958,2.9254 -13.6875,3.3125 a 0.25559412,0.25559412 0 0 1 -0.125,-0.031 0.25559412,0.25559412 0 0 1 -0.125,-0.25 0.25559412,0.25559412 0 0 1 0.0312,-0.094 0.25559412,0.25559412 0 0 1 0.15625,-0.125 0.25559412,0.25559412 0 0 1 0.0312,0 c 0,0 2.63961,-0.4065 3.5625,-2.8437 -0.49992,0.044 -2.37903,0.1711 -5.03125,-0.7188 -0.049,0.1069 -0.0587,0.1503 -0.21875,0.375 -0.25296,0.3551 -0.67429,0.8356 -1.34375,1.3125 -1.33893,0.9538 -3.69439,1.9302 -7.6875,2.125 a 0.25559412,0.25559412 0 0 1 -0.125,-0.031 0.25559412,0.25559412 0 0 1 -0.125,-0.25 0.25559412,0.25559412 0 0 1 0.0312,-0.094 0.25559412,0.25559412 0 0 1 0,-0.031 c 0,0 0.96068,-1.3228 0.90625,-2.625 -0.0818,0.078 -0.12663,0.1295 -0.25,0.2189 -0.54223,0.392 -1.5169,0.8965 -3.34375,1.375 -3.62842,0.9502 -10.62808,1.8329 -24.0625,1.6875 l -0.0312,0.3436 71.34375,0 z m -73.4375,0 0,-2.1875 a 0.25559412,0.25559412 0 0 1 0,-0.062 0.25559412,0.25559412 0 0 1 0.125,-0.1564 0.25559412,0.25559412 0 0 1 0.0937,-0.031 0.25559412,0.25559412 0 0 1 0.0312,0 l 1.34375,0 0,-1.5937 a 0.25559412,0.25559412 0 0 1 0,-0.062 0.25559412,0.25559412 0 0 1 0.125,-0.1563 0.25559412,0.25559412 0 0 1 0.0937,-0.031 0.25559412,0.25559412 0 0 1 0.0312,0 l 1,0 0,-1.5625 -1.5625,0 0,1 a 0.25559412,0.25559412 0 0 1 0,0.062 0.25559412,0.25559412 0 0 1 -0.125,0.1563 0.25559412,0.25559412 0 0 1 -0.0937,0.031 0.25559412,0.25559412 0 0 1 -0.0312,0 l -1.59375,0 0,1.3437 a 0.25559412,0.25559412 0 0 1 0,0.062 0.25559412,0.25559412 0 0 1 -0.125,0.1564 0.25559412,0.25559412 0 0 1 -0.0937,0.031 0.25559412,0.25559412 0 0 1 -0.0312,0 l -2.1875,0 0,3 3,0 z m -3,-5.0938 0.34375,-0.031 c -0.1455,-13.4344 0.7372,-20.43408 1.6875,-24.06248 0.47846,-1.8269 0.98294,-2.8015 1.375,-3.3438 0.0892,-0.1233 0.14085,-0.1681 0.21875,-0.25 -1.30225,-0.054 -2.625,0.9063 -2.625,0.9063 a 0.25559412,0.25559412 0 0 1 -0.1875,0.031 0.25559412,0.25559412 0 0 1 -0.0937,-0.031 0.25559412,0.25559412 0 0 1 -0.125,-0.1563 0.25559412,0.25559412 0 0 1 0,-0.062 c 0.19482,-3.9931 1.1712,-6.34852 2.125,-7.68749 0.4769,-0.6694 0.95739,-1.0907 1.3125,-1.3437 0.2247,-0.1601 0.2681,-0.1697 0.375,-0.2188 -0.88983,-2.6522 -0.76312,-4.5313 -0.71875,-5.0312 -2.43722,0.9229 -2.84375,3.5625 -2.84375,3.5625 a 0.25559412,0.25559412 0 0 1 -0.0312,0.094 0.25559412,0.25559412 0 0 1 -0.25,0.125 0.25559412,0.25559412 0 0 1 -0.0937,-0.031 0.25559412,0.25559412 0 0 1 -0.125,-0.1563 0.25559412,0.25559412 0 0 1 0,-0.062 c 0.38709,-6.8379 1.33613,-10.4292 3.3125,-13.6875 1.16358,-1.9182 1.39712,-3.589 1.34375,-4.7812 -0.0448,-1.0013 -0.23668,-1.5681 -0.3125,-1.75 -1.46307,-0.064 -2.42977,0.7229 -3.0625,1.5625 -0.65243,0.8657 -0.90625,1.75 -0.90625,1.75 a 0.25559412,0.25559412 0 0 1 -0.1875,0.1875 0.25559412,0.25559412 0 0 1 -0.28125,-0.125 0.25559412,0.25559412 0 0 1 -0.0312,-0.125 0.25559412,0.25559412 0 0 1 0,-0.031 c 0.42329,-2.3779 1.1543,-4.0816 1.75,-5.7188 0.5957,-1.6371 1.06359,-3.2283 0.96875,-5.4062 -0.15255,-3.5133 -2.16749,-5.0096 -2.9375,-5.4688 l 0,71.34387 z m 61.65625,-1.25 c 0.52326,0.061 1.12315,-0.131 1.656249,-0.6875 0.53309,-0.5565 0.99974,-1.4964 1.15625,-2.9375 0.22888,-2.1037 -0.32365,-3.743 -1.375,-4.9999 -1.051349,-1.2569 -2.622369,-2.1262 -4.437499,-2.5626 -1.50605,-0.3622 -2.89282,-0.2471 -4.0625,0.062 -0.79266,0.1718 -1.5671,0.442 -2.3125,0.7501 -0.74885,0.3099 -1.47511,0.654 -2.1875,1.0312 -1.42662,0.7621 -2.77711,1.5472 -4.15625,2.3438 -1.37242,0.8014 -2.76796,1.6191 -4.1875,2.3125 -0.42749,0.2068 -0.88528,0.4149 -1.3125,0.5938 a 0.25559412,0.25559412 0 0 1 -0.0312,0 0.25559412,0.25559412 0 0 1 -0.125,0 0.25559412,0.25559412 0 0 1 -0.15625,-0.125 0.25559412,0.25559412 0 0 1 -0.0312,-0.125 0.25559412,0.25559412 0 0 1 0.15625,-0.2188 c 0.55641,-0.2571 1.08547,-0.5456 1.59375,-0.8437 5.6526,-3.3155 6.28683,-7.63098 5.4375,-10.34388 -0.69641,-2.2247 -2.36051,-2.8095 -3.5625,-2.4375 -0.601,0.186 -1.10469,0.6112 -1.3125,1.25 -0.20781,0.6388 -0.13801,1.4944 0.4375,2.5625 0.75277,1.3977 0.54363,3.46008 -0.53125,5.40628 -1.07488,1.9462 -3.0189,3.7976 -5.875,4.7813 -4.56163,1.5722 -7.97766,0.3117 -9.71875,-0.7187 a 0.25559412,0.25559412 0 0 1 -0.0312,-0.031 c -0.14673,-0.1164 -0.18119,-0.2134 -0.1875,-0.2188 -0.57427,-0.4887 -1.11162,-1.0456 -1.5625,-1.6563 -0.90039,-1.2258 -1.54228,-2.6445 -1.9375,-4.1251 a 0.25559412,0.25559412 0 0 1 0,-0.062 0.25559412,0.25559412 0 0 1 0.28125,-0.25 0.25559412,0.25559412 0 0 1 0.0937,0.031 0.25559412,0.25559412 0 0 1 0.0937,0.062 c 0.12576,0.1746 0.25429,0.3505 0.40625,0.5 0.53564,0.5276 1.12117,0.7611 1.625,0.7814 0.50383,0.02 0.90188,-0.1521 1.09375,-0.4688 0.22327,-0.3685 0.21795,-0.6584 0.0312,-0.9376 -0.1867,-0.2791 -0.60407,-0.5526 -1.25,-0.7187 -1.10672,-0.2848 -1.86236,-0.80168 -2.34375,-1.46878 -0.36978,-0.5129 -0.45346,-1.0921 -0.46875,-1.5312 -8e-5,0 -0.002,-0.018 0,-0.062 a 0.25559412,0.25559412 0 0 1 0.0312,-0.125 0.25559412,0.25559412 0 0 1 0.1875,-0.125 c 0.53668,-0.096 1.06735,-0.2439 1.59375,-0.4063 0.40262,-0.1247 0.78023,-0.2525 1.15625,-0.4062 0.37401,-0.156 0.75439,-0.3372 1.125,-0.5313 0.37607,-0.1978 0.71877,-0.3795 1.0625,-0.5937 0.34101,-0.216 0.66816,-0.4736 1,-0.7188 0.66096,-0.4856 1.31024,-1.0148 1.875,-1.5937 1.13862,-1.1609 2.0747,-2.4972 2.71875,-3.9688 0.13556,-0.3067 0.20564,-0.6464 0.3125,-0.9687 -0.14703,0.303 -0.27492,0.6183 -0.4375,0.9062 -0.78899,1.3907 -1.85479,2.619 -3.03125,3.6563 -0.28461,0.2517 -0.55001,0.538 -0.875,0.7812 -0.32075,0.2428 -0.64939,0.4191 -0.96875,0.625 -0.31514,0.2048 -0.61252,0.4273 -0.96875,0.625 -0.34916,0.1937 -0.72444,0.3441 -1.0625,0.5 -0.33923,0.1558 -0.68294,0.365 -1.0625,0.5 -0.3766,0.1379 -0.76568,0.2168 -1.125,0.3125 -0.36304,0.097 -0.73882,0.1562 -1.09375,0.2188 a 0.25559412,0.25559412 0 0 1 -0.25,-0.125 0.25559412,0.25559412 0 0 1 -0.0312,-0.125 0.25559412,0.25559412 0 0 1 0,-0.031 c 0.0626,-0.3549 0.12219,-0.7307 0.21875,-1.0938 0.0958,-0.3593 0.17461,-0.7484 0.3125,-1.125 0.13508,-0.3795 0.34427,-0.7232 0.5,-1.0625 0.15597,-0.338 0.30637,-0.7133 0.5,-1.0625 0.19771,-0.3562 0.42026,-0.6536 0.625,-0.9687 0.20593,-0.3194 0.3823,-0.648 0.625,-0.9688 0.24327,-0.325 0.52961,-0.5903 0.78125,-0.875 1.03725,-1.1764 2.26565,-2.2422 3.65625,-3.0312 0.28794,-0.1626 0.60325,-0.2905 0.90625,-0.4375 -0.32233,0.1069 -0.66201,0.1769 -0.96875,0.3125 -1.4716,0.6441 -2.80789,1.5801 -3.96875,2.7187 -0.57886,0.5648 -1.10811,1.2141 -1.59375,1.875 -0.24514,0.3319 -0.50279,0.659 -0.71875,1 -0.21419,0.3438 -0.39595,0.6865 -0.59375,1.0625 -0.19405,0.3707 -0.37529,0.751 -0.53125,1.125 -0.15369,0.3761 -0.28149,0.7537 -0.40625,1.1563 -0.16232,0.5264 -0.3101,1.0571 -0.40625,1.5937 a 0.25559412,0.25559412 0 0 1 -0.0312,0.094 0.25559412,0.25559412 0 0 1 -0.15625,0.125 0.25559412,0.25559412 0 0 1 -0.0625,0 c -0.0445,0 -0.064,1e-4 -0.0625,0 -0.43913,-0.015 -1.01829,-0.099 -1.53125,-0.4687 -0.66707,-0.4814 -1.184,-1.237 -1.46875,-2.3438 -0.16613,-0.646 -0.43964,-1.0633 -0.71875,-1.25 -0.27911,-0.1866 -0.56902,-0.192 -0.9375,0.031 -0.31667,0.1919 -0.48902,0.59 -0.46875,1.0938 0.0203,0.5038 0.25375,1.0894 0.78125,1.625 0.14956,0.152 0.32547,0.2805 0.5,0.4062 a 0.25559412,0.25559412 0 0 1 0.0625,0.094 0.25559412,0.25559412 0 0 1 0.0312,0.125 0.25559412,0.25559412 0 0 1 -0.0312,0.125 0.25559412,0.25559412 0 0 1 -0.25,0.125 0.25559412,0.25559412 0 0 1 -0.0312,0 c -1.4805,-0.3952 -2.89919,-1.0371 -4.125,-1.9375 -0.61071,-0.4508 -1.16752,-0.9882 -1.65625,-1.5625 -0.005,-0.01 -0.10234,-0.041 -0.21875,-0.1875 a 0.25559412,0.25559412 0 0 1 -0.0312,-0.031 c -1.03048,-1.741 -2.29097,-5.1571 -0.71875,-9.7187 0.9837,-2.8561 2.83508,-4.80009 4.78125,-5.87499 1.94617,-1.0749 4.00851,-1.284 5.40625,-0.5313 1.06812,0.5756 1.9237,0.6454 2.5625,0.4375 0.6388,-0.2078 1.064,-0.7115 1.25,-1.3125 0.37199,-1.2019 -0.21277,-2.866 -2.4375,-3.5625 -2.71291,-0.8493 -7.02826,-0.215 -10.34375,5.4375 -0.2982,0.5083 -0.58667,1.0374 -0.84375,1.5938 a 0.25559412,0.25559412 0 0 1 -0.25,0.1562 0.25559412,0.25559412 0 0 1 -0.0937,-0.031 0.25559412,0.25559412 0 0 1 -0.125,-0.1562 0.25559412,0.25559412 0 0 1 0,-0.125 0.25559412,0.25559412 0 0 1 0,-0.031 c 0.17884,-0.4272 0.38698,-0.885 0.59375,-1.3125 0.6934,-1.4195 1.51111,-2.8151 2.3125,-4.1875 0.79657,-1.3791 1.58166,-2.7296 2.34375,-4.1563 0.37722,-0.7124 0.72135,-1.4386 1.03125,-2.1875 0.30795,-0.7454 0.57819,-1.5198 0.75,-2.3125 0.30959,-1.1696 0.4247,-2.5564 0.0625,-4.0625 -0.4364,-1.8151 -1.30563,-3.3861 -2.5625,-4.4375 -1.25687,-1.0513 -2.89622,-1.6038 -5,-1.375 -1.44108,0.1566 -2.38095,0.6232 -2.9375,1.1563 -0.55655,0.5331 -0.74814,1.133 -0.6875,1.6562 0.0399,0.3446 0.21367,0.6611 0.4375,0.875 0.43882,0.4199 1.00546,0.5499 1.6875,0.375 0.68204,-0.1748 1.45959,-0.6573 2.125,-1.4375 1.06143,-1.244 2.13672,-1.1394 2.625,-0.9375 a 0.25559412,0.25559412 0 0 1 0.125,0.125 0.25559412,0.25559412 0 0 1 0.0312,0.094 0.25559412,0.25559412 0 0 1 -0.125,0.25 0.25559412,0.25559412 0 0 1 -0.125,0.031 0.25559412,0.25559412 0 0 1 -0.0625,0 c -0.9002,-0.2721 -2.18137,1.1842 -1.03125,2.4375 0.44278,0.483 1.12369,0.5648 1.90625,0.75 0.78256,0.1853 1.65277,0.5319 2.28125,1.5625 0.72332,1.1868 0.63438,2.8068 0.40625,4.1875 a 0.25559412,0.25559412 0 0 1 0,0.062 c -0.39594,0.9953 -0.88726,1.9653 -1.4375,2.9063 -0.8027,1.3727 -1.7177,2.7048 -2.5625,4.0625 -0.58006,0.9355 -1.14568,1.8787 -1.6875,2.8437 a 0.25559412,0.25559412 0 0 1 -0.0937,0.094 0.25559412,0.25559412 0 0 1 -0.125,0.031 0.25559412,0.25559412 0 0 1 -0.25,-0.2812 0.25559412,0.25559412 0 0 1 0.0312,-0.062 c 2.05407,-4.4195 3.73639,-8.6191 3.125,-11.8125 -0.4039,-2.1098 -1.82774,-2.8756 -2.90625,-2.8438 -0.53926,0.016 -0.9774,0.2362 -1.1875,0.5625 -0.2101,0.3264 -0.23354,0.7879 0.15625,1.4375 1.14671,1.9115 1.5656,3.4478 1.375,5.4063 -0.1906,1.9585 -0.95741,4.3412 -2.15625,8.0312 -1.1511,3.5421 -1.24518,6.72409 -1.03125,9.09379 a 0.25559412,0.25559412 0 0 1 0,0.031 c -0.009,0.3715 -0.0197,0.7389 0,1.0938 5.6e-4,0.01 -6.2e-4,0.021 0,0.031 0.0541,0.8182 0.21831,1.6665 0.4375,2.4687 0.22014,0.8076 0.5177,1.5677 0.90625,2.3125 0.19349,0.3728 0.42674,0.748 0.65625,1.0938 a 0.25559412,0.25559412 0 0 1 0,0.031 c 0.043,0.067 0.11167,0.1119 0.1875,0.2187 a 0.25559412,0.25559412 0 0 1 0,0.031 l 0.0625,0.094 0,0.031 0.0937,0.094 c 0.11992,0.1618 0.26384,0.3626 0.40625,0.5313 0.54657,0.6466 1.17049,1.1859 1.84375,1.6875 2.51214,1.8564 5.67261,2.7533 8.75,2.5625 a 0.25559412,0.25559412 0 0 1 0.28125,0.2812 c -0.19087,3.07738 0.70605,6.23798 2.5625,8.75008 0.50152,0.6733 1.04087,1.2972 1.6875,1.8438 0.16868,0.1424 0.36947,0.2863 0.53125,0.4062 l 0.0937,0.094 0.0312,0 0.0937,0.062 a 0.25559412,0.25559412 0 0 1 0.0312,0 c 0.10689,0.076 0.15213,0.1446 0.21875,0.1875 a 0.25559412,0.25559412 0 0 1 0.0312,0 c 0.34578,0.2295 0.72096,0.4628 1.09375,0.6564 0.74477,0.3885 1.50495,0.686 2.3125,0.9061 0.80218,0.2192 1.65054,0.3834 2.46875,0.4375 0.0102,6e-4 0.0211,-6e-4 0.0312,0 0.35483,0.02 0.72227,0.01 1.09375,0 a 0.25559412,0.25559412 0 0 1 0.0312,0 c 2.36974,0.2139 5.55166,0.1199 9.09375,-1.0311 3.69008,-1.199 6.07279,-1.9658 8.03125,-2.1564 1.95846,-0.1906 3.49482,0.2283 5.40625,1.375 0.64968,0.3898 1.11111,0.3665 1.4375,0.1564 0.32639,-0.2102 0.54657,-0.6484 0.5625,-1.1876 0.0319,-1.0786 -0.73393,-2.5024 -2.84375,-2.9063 -3.19345,-0.6114 -7.393,1.0709 -11.8125,3.125 a 0.25559412,0.25559412 0 0 1 -0.125,0.031 0.25559412,0.25559412 0 0 1 -0.0937,-0.031 0.25559412,0.25559412 0 0 1 -0.125,-0.1562 0.25559412,0.25559412 0 0 1 0,-0.125 0.25559412,0.25559412 0 0 1 0.125,-0.1563 c 0.96507,-0.5418 1.90824,-1.1074 2.84375,-1.6875 1.35774,-0.8448 2.68984,-1.7598 4.0625,-2.5625 0.94097,-0.5502 1.911,-1.0415 2.90625,-1.4375 a 0.25559412,0.25559412 0 0 1 0.0625,0 c 1.38073,-0.2281 3.00071,-0.3171 4.1875,0.4063 1.03063,0.6284 1.37726,1.4986 1.5625,2.2812 0.18524,0.7826 0.26706,1.4635 0.75,1.9063 1.25335,1.1501 2.70969,-0.131 2.4375,-1.0313 a 0.25559412,0.25559412 0 0 1 0,-0.125 0.25559412,0.25559412 0 0 1 0.125,-0.1562 0.25559412,0.25559412 0 0 1 0.0937,-0.031 0.25559412,0.25559412 0 0 1 0.28125,0.1562 c 0.201939,0.4883 0.306529,1.5636 -0.9375,2.625 -0.78018,0.6655 -1.26263,1.443 -1.4375,2.125 -0.17487,0.682 -0.0449,1.2488 0.375,1.6875 0.21391,0.2238 0.53048,0.3976 0.875,0.4375 z m -54.375,-0.9375 c 2.10683,-0.6886 2.89293,-1.9826 3.125,-2.4375 a 0.25559412,0.25559412 0 0 1 0.15625,-0.125 0.25559412,0.25559412 0 0 1 0.125,0 0.25559412,0.25559412 0 0 1 0.15625,0.125 0.25559412,0.25559412 0 0 1 0.0312,0.094 0.25559412,0.25559412 0 0 1 0,0.125 c -0.36913,0.8772 -0.1336,1.5613 0.15625,2.0625 0.16609,-2.0269 1.5938,-2.9686 1.5938,-2.9686 a 0.25559412,0.25559412 0 0 1 0.0937,-0.031 0.25559412,0.25559412 0 0 1 0.21875,0.094 c 0.51007,0.6389 1.17759,0.7534 1.75,0.7188 0.27413,-0.017 0.50732,-0.073 0.6875,-0.125 -1.06009,-1.1399 -1.23394,-2.4371 -1,-3.3751 0.12779,-0.5123 0.35725,-0.9121 0.625,-1.1562 0.13388,-0.122 0.27474,-0.2276 0.46875,-0.2188 0.19401,0.01 0.35866,0.1644 0.4375,0.3438 1.10866,2.5201 3.0823,3.1619 4.8125,3.2188 1.44183,0.047 2.49624,-0.3061 2.875,-0.4375 -3.23789,-3.9639 -3.11023,-8.42408 -3.0625,-9.15638 -0.73233,0.048 -5.19237,0.1754 -9.15625,-3.0625 -0.13147,0.3788 -0.48484,1.4332 -0.4375,2.875 0.0568,1.7302 0.69867,3.70378 3.21875,4.81258 0.17935,0.079 0.33495,0.2435 0.34375,0.4375 0.009,0.194 -0.0967,0.3349 -0.21875,0.4687 -0.24407,0.2678 -0.64388,0.4973 -1.15625,0.625 -0.93794,0.234 -2.23517,0.06 -3.375,-1 -0.0516,0.1802 -0.10841,0.4134 -0.125,0.6875 -0.0346,0.5725 0.0799,1.24 0.71875,1.7501 a 0.25559412,0.25559412 0 0 1 0.0937,0.125 0.25559412,0.25559412 0 0 1 0,0.125 0.25559412,0.25559412 0 0 1 -0.0312,0.062 c 0,0 -0.94179,1.4277 -2.96875,1.5937 0.50121,0.2899 1.18536,0.5254 2.0625,0.1563 a 0.25559412,0.25559412 0 0 1 0.0312,0 0.25559412,0.25559412 0 0 1 0.125,0 0.25559412,0.25559412 0 0 1 0.15625,0.125 0.25559412,0.25559412 0 0 1 0.0312,0.094 0.25559412,0.25559412 0 0 1 -0.125,0.25 c -0.45495,0.2321 -1.74891,1.0182 -2.4375,3.125 z m 26.0625,-6.0937 c 0.68827,0.039 1.42988,-0.1101 2.125,-0.5 1.23623,-0.6935 1.375,-2.0312 1.375,-2.0312 a 0.25559412,0.25559412 0 0 1 0,-0.031 0.25559412,0.25559412 0 0 1 0.125,-0.1563 0.25559412,0.25559412 0 0 1 0.0937,-0.031 0.25559412,0.25559412 0 0 1 0.0937,0 c 1.4566,0.4663 2.95893,0.079 3.9375,-0.75 0.58915,-0.4993 0.99307,-1.1398 1.09375,-1.8438 0.0702,-0.49038 -0.0714,-1.03798 -0.5625,-1.46878 -0.49106,-0.4307 -1.36788,-0.761 -2.84375,-0.75 -0.9837,0.01 -2.23895,0.179 -3.78125,0.5625 -4.19159,1.0421 -7.34073,0.5172 -8.96875,0.094 0.5581,0.4977 1.01988,1.02 1.28125,1.53128 0.40451,0.7913 0.46532,1.6107 0.375,2.5001 -0.0949,0.9347 0.0659,1.5661 0.34375,1.9375 0.27783,0.3714 0.69665,0.53 1.28125,0.5 0.5633,-0.029 0.79411,-0.2758 0.9375,-0.5313 0.14339,-0.2554 0.15625,-0.5 0.15625,-0.5 a 0.25559412,0.25559412 0 0 1 0.0312,-0.125 0.25559412,0.25559412 0 0 1 0.25,-0.125 0.25559412,0.25559412 0 0 1 0.0937,0.031 0.25559412,0.25559412 0 0 1 0.125,0.125 c 0.347,0.8765 1.29544,1.4979 2.4375,1.5625 z m 15.53125,-2.6875 c 0.4716,-0.2665 0.8575,-0.5279 1.4375,-0.8125 2.03428,-0.9979 4.59546,-1.9633 6.78125,-1.7813 0.75849,0.063 1.17242,-0.085 1.3125,-0.2188 0.0802,-0.076 0.1062,-0.11458 0.0937,-0.18748 -0.0125,-0.073 -0.0782,-0.1984 -0.21875,-0.3125 -0.28118,-0.2281 -0.86672,-0.444 -1.71875,-0.4375 -1.64622,0.013 -4.29308,0.8838 -7.6875,3.75008 z m -0.90625,-0.8437 c 1.73994,-2.21718 2.29606,-3.95928 2.25,-5.21888 -0.0597,-1.6322 -1.07925,-2.4307 -1.59375,-2.4375 -0.13577,0 -0.20476,0.053 -0.28125,0.1563 -0.11726,0.1578 -0.19192,0.5471 0.0937,1.2187 0.98008,2.304 0.32389,4.59608 -0.46875,6.28138 z m -18.625,-3.78138 c 5.2788,0.2191 9.04381,-2.2244 11.34375,-4.4062 1.16597,-1.1061 1.81594,-1.9679 2.21875,-2.5625 -2.5593,0.9217 -4.75,-0.375 -4.75,-0.375 a 0.25559412,0.25559412 0 0 1 -0.125,-0.25 0.25559412,0.25559412 0 0 1 0.0312,-0.094 0.25559412,0.25559412 0 0 1 0.15625,-0.125 0.25559412,0.25559412 0 0 1 0.125,0 0.25559412,0.25559412 0 0 1 0.0312,0 c 1.64883,0.6112 3.73134,-0.1861 4.78125,-1.4375 0.80252,-0.957 0.98852,-2.1492 0.78125,-3.2188 -0.20727,-1.0695 -0.82405,-2.0089 -1.5625,-2.4375 -1.92581,-1.1171 -3.375,0.031 -3.375,0.031 a 0.25559412,0.25559412 0 0 1 -0.0312,0.031 0.25559412,0.25559412 0 0 1 -0.125,0.031 0.25559412,0.25559412 0 0 1 -0.25,-0.2812 0.25559412,0.25559412 0 0 1 0.0312,-0.094 0.25559412,0.25559412 0 0 1 0.0312,-0.031 c 0.37661,-0.452 0.88245,-0.6968 1.5,-0.8438 0.61755,-0.1469 1.36937,-0.2123 2.25,-0.37495 1.64543,-0.30498 2.78146,-1.85221 2.40625,-4.25004 -0.28527,-1.8272 -0.21213,-2.9152 -0.1875,-3.25 -0.33471,0.025 -1.42273,0.098 -3.25,-0.1875 -2.39777,-0.3752 -3.94501,0.7609 -4.25,2.4063 -0.16265,0.8806 -0.22808,1.6325 -0.375,2.25 -0.14692,0.6175 -0.3918,1.12338 -0.84375,1.49999 a 0.25559412,0.25559412 0 0 1 -0.0937,0.0625 0.25559412,0.25559412 0 0 1 -0.125,0 0.25559412,0.25559412 0 0 1 -0.15625,-0.125 0.25559412,0.25559412 0 0 1 -0.0312,-0.0937 0.25559412,0.25559412 0 0 1 0.0625,-0.1875 c 0,0 1.14837,-1.44919 0.0312,-3.37499 -0.42857,-0.7385 -1.36794,-1.3552 -2.4375,-1.5625 -1.06956,-0.2073 -2.26175,-0.021 -3.21875,0.7812 -1.25145,1.0499 -2.0487,3.1325 -1.4375,4.78129 a 0.25559412,0.25559412 0 0 1 0,0.0937 0.25559412,0.25559412 0 0 1 -0.0312,0.125 0.25559412,0.25559412 0 0 1 -0.25,0.125 0.25559412,0.25559412 0 0 1 -0.0937,-0.0312 0.25559412,0.25559412 0 0 1 -0.0937,-0.0937 c 0,0 -1.29669,-2.19069 -0.375,-4.74999 -0.59461,0.4028 -1.45638,1.0528 -2.5625,2.2187 -2.18184,2.29994 -4.6253,6.06499 -4.40625,11.34379 0.0452,1.0891 0.26166,2.2484 0.5625,3.4687 0.29748,-0.8863 0.92881,-2.5554 2.59375,-4.625 2.2081,-2.7447 5.9602,-5.5223 11.96875,-5.6562 a 0.25559412,0.25559412 0 0 1 0.0312,0 0.25559412,0.25559412 0 0 1 0.0937,0.031 0.25559412,0.25559412 0 0 1 0.0625,0.062 0.25559412,0.25559412 0 0 1 0.0312,0 0.25559412,0.25559412 0 0 1 0,0.031 0.25559412,0.25559412 0 0 1 0.0312,0.031 0.25559412,0.25559412 0 0 1 0.0937,0.125 0.25559412,0.25559412 0 0 1 0,0.062 c -0.1339,6.0085 -2.91147,9.7606 -5.65625,11.9687 -2.0696,1.665 -3.73869,2.2963 -4.625,2.5938 1.22034,0.3008 2.37969,0.5173 3.46875,0.5625 z m -9.0625,-5.3437 c -0.4234,-1.628 -0.94832,-4.7772 0.0937,-8.9688 0.38362,-1.5424 0.55569,-2.79788 0.5625,-3.7812 0.0111,-1.47589 -0.31929,-2.35269 -0.75,-2.84379 -0.43071,-0.491 -0.97837,-0.6327 -1.46875,-0.5625 -0.70405,0.1007 -1.34451,0.5046 -1.84375,1.0938 -0.82918,0.9786 -1.2163,2.4809 -0.75,3.93749 a 0.25559412,0.25559412 0 0 1 0,0.125 0.25559412,0.25559412 0 0 1 -0.125,0.1562 0.25559412,0.25559412 0 0 1 -0.0937,0.031 c 0,0 -1.33769,0.1388 -2.03125,1.375 -0.38984,0.6952 -0.53886,1.4368 -0.5,2.125 0.0646,1.1421 0.68599,2.0905 1.5625,2.4375 a 0.25559412,0.25559412 0 0 1 0.0312,0.031 0.25559412,0.25559412 0 0 1 0.125,0.1563 0.25559412,0.25559412 0 0 1 0,0.125 0.25559412,0.25559412 0 0 1 -0.125,0.1562 0.25559412,0.25559412 0 0 1 -0.0937,0.031 0.25559412,0.25559412 0 0 1 -0.0312,0 c 0,0 -0.24454,0.013 -0.5,0.1563 -0.25546,0.1434 -0.50213,0.3742 -0.53125,0.9375 -0.03,0.5846 0.12857,1.0034 0.5,1.2812 0.37143,0.2779 1.0028,0.4387 1.9375,0.3438 0.88934,-0.09 1.70873,-0.029 2.5,0.375 0.51127,0.2614 1.03358,0.7231 1.53125,1.2812 z m -3.375,-21.93749 c 1.6852,-0.7926 3.97727,-1.4488 6.28125,-0.4688 0.54024,0.2298 0.92962,0.2552 1.125,0.1875 0.19538,-0.068 0.25243,-0.1769 0.25,-0.375 -0.007,-0.5145 -0.8053,-1.534 -2.4375,-1.5937 -1.25951,-0.046 -3.00162,0.5101 -5.21875,2.25 z m -0.84375,-0.9063 c 2.86625,-3.3944 3.73732,-6.0412 3.75,-7.6875 0.007,-0.852 -0.20939,-1.4375 -0.4375,-1.7187 -0.11405,-0.1406 -0.23961,-0.2063 -0.3125,-0.2188 -0.0729,-0.012 -0.11111,0.014 -0.1875,0.094 -0.13335,0.14 -0.28196,0.554 -0.21875,1.3125 0.18197,2.1858 -0.78338,4.747 -1.78125,6.7813 -0.28451,0.58 -0.54591,0.9659 -0.8125,1.4375 z"
         style="fill:#000000;fill-opacity:1;stroke:none" />
      <path
         inkscape:connector-curvature="0"
         id="path7765-9-2"
         d="m 111.71875,561.45271 c -0.45911,0.77001 -1.95548,2.78495 -5.46875,2.9375 -2.17795,0.0948 -3.76912,-0.37305 -5.40625,-0.96875 -1.63713,-0.5957 -3.34082,-1.32671 -5.71875,-1.75 a 0.25559412,0.25559412 0 0 0 -0.25,0.125 0.25559412,0.25559412 0 0 0 -0.0312,0.125 0.25559412,0.25559412 0 0 0 0.0312,0.125 0.25559412,0.25559412 0 0 0 0.15625,0.125 c 0,0 0.88427,0.25382 1.75,0.90625 0.83959,0.63273 1.62652,1.59943 1.5625,3.0625 -0.18192,0.0758 -0.74874,0.26768 -1.75,0.3125 -1.19218,0.0534 -2.86303,-0.18017 -4.78125,-1.34375 -3.25828,-1.97637 -6.84958,-2.92541 -13.6875,-3.3125 a 0.25559412,0.25559412 0 0 0 -0.125,0.0312 0.25559412,0.25559412 0 0 0 -0.125,0.25 0.25559412,0.25559412 0 0 0 0.0312,0.0937 0.25559412,0.25559412 0 0 0 0.15625,0.125 0.25559412,0.25559412 0 0 0 0.0312,0 c 0,0 2.63961,0.40653 3.5625,2.84375 -0.49992,-0.0444 -2.37903,-0.17108 -5.03125,0.71875 -0.049,-0.1069 -0.0587,-0.1503 -0.21875,-0.375 -0.25296,-0.35511 -0.67429,-0.8356 -1.34375,-1.3125 -1.33893,-0.9538 -3.69439,-1.93018 -7.6875,-2.125 a 0.25559412,0.25559412 0 0 0 -0.125,0.0312 0.25559412,0.25559412 0 0 0 -0.125,0.25 0.25559412,0.25559412 0 0 0 0.0312,0.0937 0.25559412,0.25559412 0 0 0 0,0.0312 c 0,0 0.96068,1.32275 0.90625,2.625 -0.0818,-0.0779 -0.12663,-0.12955 -0.25,-0.21875 -0.54223,-0.39206 -1.5169,-0.89654 -3.34375,-1.375 -3.62842,-0.9503 -10.62808,-1.833 -24.0625,-1.6875 l -0.0312,-0.34375 71.34375,0 z m -73.4375,0 0,2.1875 a 0.25559412,0.25559412 0 0 0 0,0.0625 0.25559412,0.25559412 0 0 0 0.125,0.15625 0.25559412,0.25559412 0 0 0 0.0937,0.0312 0.25559412,0.25559412 0 0 0 0.0312,0 l 1.34375,0 0,1.59375 a 0.25559412,0.25559412 0 0 0 0,0.0625 0.25559412,0.25559412 0 0 0 0.125,0.15625 0.25559412,0.25559412 0 0 0 0.0937,0.0312 0.25559412,0.25559412 0 0 0 0.0312,0 l 1,0 0,1.5625 -1.5625,0 0,-1 a 0.25559412,0.25559412 0 0 0 0,-0.0625 0.25559412,0.25559412 0 0 0 -0.125,-0.15625 0.25559412,0.25559412 0 0 0 -0.0937,-0.0312 0.25559412,0.25559412 0 0 0 -0.0312,0 l -1.59375,0 0,-1.34375 a 0.25559412,0.25559412 0 0 0 0,-0.0625 0.25559412,0.25559412 0 0 0 -0.125,-0.15625 0.25559412,0.25559412 0 0 0 -0.0937,-0.0312 0.25559412,0.25559412 0 0 0 -0.0312,0 l -2.1875,0 0,-3 3,0 z m -3,5.09375 0.34375,0.0312 c -0.1455,13.43442 0.7372,20.43408 1.6875,24.0625 0.47846,1.82685 0.98294,2.80152 1.375,3.34375 0.0892,0.12337 0.14085,0.16818 0.21875,0.25 -1.30225,0.0544 -2.625,-0.90625 -2.625,-0.90625 a 0.25559412,0.25559412 0 0 0 -0.1875,-0.0312 0.25559412,0.25559412 0 0 0 -0.0937,0.0312 0.25559412,0.25559412 0 0 0 -0.125,0.15625 0.25559412,0.25559412 0 0 0 0,0.0625 c 0.19482,3.99311 1.1712,6.34857 2.125,7.6875 0.4769,0.66946 0.95739,1.09079 1.3125,1.34375 0.2247,0.16007 0.2681,0.16971 0.375,0.21875 -0.88983,2.65222 -0.76312,4.53133 -0.71875,5.03125 -2.43722,-0.92289 -2.84375,-3.5625 -2.84375,-3.5625 a 0.25559412,0.25559412 0 0 0 -0.0312,-0.0937 0.25559412,0.25559412 0 0 0 -0.25,-0.125 0.25559412,0.25559412 0 0 0 -0.0937,0.0312 0.25559412,0.25559412 0 0 0 -0.125,0.15625 0.25559412,0.25559412 0 0 0 0,0.0625 c 0.38709,6.83792 1.33613,10.42922 3.3125,13.6875 1.16358,1.91822 1.39712,3.58907 1.34375,4.78125 -0.0448,1.00126 -0.23668,1.56808 -0.3125,1.75 -1.46307,0.064 -2.42977,-0.72291 -3.0625,-1.5625 -0.65243,-0.86573 -0.90625,-1.75 -0.90625,-1.75 a 0.25559412,0.25559412 0 0 0 -0.1875,-0.1875 0.25559412,0.25559412 0 0 0 -0.28125,0.125 0.25559412,0.25559412 0 0 0 -0.0312,0.125 0.25559412,0.25559412 0 0 0 0,0.0312 c 0.42329,2.37793 1.1543,4.08162 1.75,5.71875 0.5957,1.63713 1.06359,3.2283 0.96875,5.40625 -0.15255,3.51327 -2.16749,5.00964 -2.9375,5.46875 l 0,-71.34375 z m 61.65625,1.25 c 0.52326,-0.0606 1.12315,0.13096 1.65625,0.6875 0.53309,0.55655 0.99974,1.49642 1.15625,2.9375 0.22888,2.10378 -0.32365,3.74313 -1.375,5 -1.05135,1.25687 -2.62237,2.1261 -4.4375,2.5625 -1.50605,0.36221 -2.89282,0.24709 -4.0625,-0.0625 -0.79266,-0.17181 -1.5671,-0.44205 -2.3125,-0.75 -0.74885,-0.3099 -1.47511,-0.65402 -2.1875,-1.03125 -1.42662,-0.7621 -2.77711,-1.54718 -4.15625,-2.34375 -1.37242,-0.80138 -2.76796,-1.6191 -4.1875,-2.3125 -0.42749,-0.20677 -0.88528,-0.41491 -1.3125,-0.59375 a 0.25559412,0.25559412 0 0 0 -0.0312,0 0.25559412,0.25559412 0 0 0 -0.125,0 0.25559412,0.25559412 0 0 0 -0.15625,0.125 0.25559412,0.25559412 0 0 0 -0.0312,0.125 0.25559412,0.25559412 0 0 0 0.15625,0.21875 c 0.55641,0.25708 1.08547,0.54556 1.59375,0.84375 5.6526,3.31549 6.28683,7.63083 5.4375,10.34375 -0.69641,2.22472 -2.36051,2.80949 -3.5625,2.4375 -0.601,-0.186 -1.10469,-0.6112 -1.3125,-1.25 -0.20781,-0.6388 -0.13801,-1.49438 0.4375,-2.5625 0.75277,-1.39774 0.54363,-3.46008 -0.53125,-5.40625 -1.07488,-1.94617 -3.0189,-3.79755 -5.875,-4.78125 -4.56163,-1.57222 -7.97766,-0.31173 -9.71875,0.71875 a 0.25559412,0.25559412 0 0 0 -0.0312,0.0312 c -0.14673,0.1164 -0.18119,0.21337 -0.1875,0.21875 -0.57427,0.48873 -1.11162,1.04555 -1.5625,1.65625 -0.90039,1.22582 -1.54228,2.6445 -1.9375,4.125 a 0.25559412,0.25559412 0 0 0 0,0.0625 0.25559412,0.25559412 0 0 0 0.28125,0.25 0.25559412,0.25559412 0 0 0 0.0937,-0.0312 0.25559412,0.25559412 0 0 0 0.0937,-0.0625 c 0.12576,-0.17452 0.25429,-0.35044 0.40625,-0.5 0.53564,-0.5275 1.12117,-0.76098 1.625,-0.78125 0.50383,-0.0203 0.90188,0.15208 1.09375,0.46875 0.22327,0.36846 0.21795,0.65837 0.0312,0.9375 -0.1867,0.27913 -0.60407,0.55262 -1.25,0.71875 -1.10672,0.28475 -1.86236,0.80168 -2.34375,1.46875 -0.36978,0.51296 -0.45346,1.09212 -0.46875,1.53125 -8e-5,-0.002 -0.002,0.018 0,0.0625 a 0.25559412,0.25559412 0 0 0 0.0312,0.125 0.25559412,0.25559412 0 0 0 0.1875,0.125 c 0.53668,0.0961 1.06735,0.24393 1.59375,0.40625 0.40262,0.12476 0.78023,0.25256 1.15625,0.40625 0.37401,0.15596 0.75439,0.3372 1.125,0.53125 0.37607,0.1978 0.71877,0.37955 1.0625,0.59375 0.34101,0.21596 0.66816,0.4736 1,0.71875 0.66096,0.48562 1.31024,1.01489 1.875,1.59375 1.13862,1.16086 2.0747,2.49715 2.71875,3.96875 0.13556,0.30675 0.20564,0.64643 0.3125,0.96875 -0.14703,-0.303 -0.27492,-0.61831 -0.4375,-0.90625 -0.78899,-1.39066 -1.85479,-2.619 -3.03125,-3.65625 -0.28461,-0.25174 -0.55001,-0.538 -0.875,-0.78125 -0.32075,-0.24272 -0.64939,-0.41908 -0.96875,-0.625 -0.31514,-0.20475 -0.61252,-0.42729 -0.96875,-0.625 -0.34916,-0.19361 -0.72444,-0.34403 -1.0625,-0.5 -0.33923,-0.15575 -0.68294,-0.36492 -1.0625,-0.5 -0.3766,-0.13789 -0.76568,-0.21673 -1.125,-0.3125 -0.36304,-0.0966 -0.73882,-0.15614 -1.09375,-0.21875 a 0.25559412,0.25559412 0 0 0 -0.25,0.125 0.25559412,0.25559412 0 0 0 -0.0312,0.125 0.25559412,0.25559412 0 0 0 0,0.0312 c 0.0626,0.35494 0.12219,0.73071 0.21875,1.09375 0.0958,0.35932 0.17461,0.7484 0.3125,1.125 0.13508,0.37956 0.34427,0.72327 0.5,1.0625 0.15597,0.33804 0.30637,0.71334 0.5,1.0625 0.19771,0.35624 0.42026,0.65362 0.625,0.96875 0.20593,0.31937 0.3823,0.64801 0.625,0.96875 0.24327,0.32502 0.52961,0.59039 0.78125,0.875 1.03725,1.17647 2.26565,2.24223 3.65625,3.03125 0.28794,0.16258 0.60325,0.29047 0.90625,0.4375 -0.32233,-0.10686 -0.66201,-0.17694 -0.96875,-0.3125 -1.4716,-0.64406 -2.80789,-1.58013 -3.96875,-2.71875 -0.57886,-0.56476 -1.10811,-1.21404 -1.59375,-1.875 -0.24514,-0.33183 -0.50279,-0.659 -0.71875,-1 -0.21419,-0.34374 -0.39595,-0.68644 -0.59375,-1.0625 -0.19405,-0.37061 -0.37529,-0.75098 -0.53125,-1.125 -0.15369,-0.37601 -0.28149,-0.75363 -0.40625,-1.15625 -0.16232,-0.5264 -0.3101,-1.05707 -0.40625,-1.59375 a 0.25559412,0.25559412 0 0 0 -0.0312,-0.0937 0.25559412,0.25559412 0 0 0 -0.15625,-0.125 0.25559412,0.25559412 0 0 0 -0.0625,0 c -0.0445,-0.002 -0.064,-7e-5 -0.0625,0 -0.43913,0.0153 -1.01829,0.099 -1.53125,0.46875 -0.66707,0.48139 -1.184,1.23703 -1.46875,2.34375 -0.16613,0.64607 -0.43964,1.06334 -0.71875,1.25 -0.27911,0.18666 -0.56902,0.19203 -0.9375,-0.0312 -0.31667,-0.19188 -0.48902,-0.58992 -0.46875,-1.09375 0.0203,-0.50383 0.25375,-1.08936 0.78125,-1.625 0.14956,-0.15196 0.32547,-0.28048 0.5,-0.40625 a 0.25559412,0.25559412 0 0 0 0.0625,-0.0937 0.25559412,0.25559412 0 0 0 0.0312,-0.125 0.25559412,0.25559412 0 0 0 -0.0312,-0.125 0.25559412,0.25559412 0 0 0 -0.25,-0.125 0.25559412,0.25559412 0 0 0 -0.0312,0 c -1.4805,0.39522 -2.89919,1.03712 -4.125,1.9375 -0.61071,0.45089 -1.16752,0.98823 -1.65625,1.5625 -0.005,0.006 -0.10234,0.0406 -0.21875,0.1875 a 0.25559412,0.25559412 0 0 0 -0.0312,0.0312 c -1.03048,1.74109 -2.29097,5.15712 -0.71875,9.71875 0.9837,2.8561 2.83508,4.80012 4.78125,5.875 1.94617,1.07488 4.00851,1.28402 5.40625,0.53125 1.06812,-0.57551 1.9237,-0.64531 2.5625,-0.4375 0.6388,0.20781 1.064,0.7115 1.25,1.3125 0.37199,1.20199 -0.21277,2.86609 -2.4375,3.5625 -2.71291,0.84932 -7.02826,0.21509 -10.34375,-5.4375 -0.2982,-0.5083 -0.58667,-1.03734 -0.84375,-1.59375 a 0.25559412,0.25559412 0 0 0 -0.25,-0.15625 0.25559412,0.25559412 0 0 0 -0.0937,0.0312 0.25559412,0.25559412 0 0 0 -0.125,0.15625 0.25559412,0.25559412 0 0 0 0,0.125 0.25559412,0.25559412 0 0 0 0,0.0312 c 0.17884,0.4272 0.38698,0.885 0.59375,1.3125 0.6934,1.41954 1.51111,2.81507 2.3125,4.1875 0.79657,1.37914 1.58166,2.72962 2.34375,4.15625 0.37722,0.7124 0.72135,1.43865 1.03125,2.1875 0.30795,0.7454 0.57819,1.51984 0.75,2.3125 0.30959,1.16968 0.4247,2.55645 0.0625,4.0625 -0.4364,1.81513 -1.30563,3.38615 -2.5625,4.4375 -1.25687,1.05135 -2.89622,1.60388 -5,1.375 -1.44108,-0.15651 -2.38095,-0.62316 -2.9375,-1.15625 -0.55655,-0.53309 -0.74814,-1.133 -0.6875,-1.65625 0.0399,-0.34453 0.21367,-0.66109 0.4375,-0.875 0.43882,-0.41986 1.00546,-0.54987 1.6875,-0.375 0.68204,0.17487 1.45959,0.65733 2.125,1.4375 1.06143,1.24404 2.13672,1.13944 2.625,0.9375 a 0.25559412,0.25559412 0 0 0 0.125,-0.125 0.25559412,0.25559412 0 0 0 0.0312,-0.0937 0.25559412,0.25559412 0 0 0 -0.125,-0.25 0.25559412,0.25559412 0 0 0 -0.125,-0.0312 0.25559412,0.25559412 0 0 0 -0.0625,0 c -0.9002,0.27218 -2.18137,-1.18416 -1.03125,-2.4375 0.44278,-0.48293 1.12369,-0.56476 1.90625,-0.75 0.78256,-0.18524 1.65277,-0.53187 2.28125,-1.5625 0.72332,-1.18679 0.63438,-2.80677 0.40625,-4.1875 a 0.25559412,0.25559412 0 0 0 0,-0.0625 c -0.39594,-0.99525 -0.88726,-1.96528 -1.4375,-2.90625 -0.8027,-1.37266 -1.7177,-2.70476 -2.5625,-4.0625 -0.58006,-0.93552 -1.14568,-1.87869 -1.6875,-2.84375 a 0.25559412,0.25559412 0 0 0 -0.0937,-0.0937 0.25559412,0.25559412 0 0 0 -0.125,-0.0312 0.25559412,0.25559412 0 0 0 -0.25,0.28125 0.25559412,0.25559412 0 0 0 0.0312,0.0625 c 2.05407,4.41949 3.73639,8.61905 3.125,11.8125 -0.4039,2.10982 -1.82774,2.87561 -2.90625,2.84375 -0.53926,-0.0159 -0.9774,-0.23611 -1.1875,-0.5625 -0.2101,-0.32639 -0.23354,-0.78782 0.15625,-1.4375 1.14671,-1.91143 1.5656,-3.44779 1.375,-5.40625 -0.1906,-1.95846 -0.95741,-4.34117 -2.15625,-8.03125 -1.1511,-3.5421 -1.24518,-6.72401 -1.03125,-9.09375 a 0.25559412,0.25559412 0 0 0 0,-0.0312 c -0.009,-0.37148 -0.0197,-0.73891 0,-1.09375 5.6e-4,-0.0101 -6.2e-4,-0.0211 0,-0.0312 0.0541,-0.81821 0.21831,-1.66657 0.4375,-2.46875 0.22014,-0.80756 0.5177,-1.56773 0.90625,-2.3125 0.19349,-0.37279 0.42674,-0.74798 0.65625,-1.09375 a 0.25559412,0.25559412 0 0 0 0,-0.0312 c 0.043,-0.0666 0.11167,-0.11195 0.1875,-0.21875 a 0.25559412,0.25559412 0 0 0 0,-0.0312 l 0.0625,-0.0937 0,-0.0312 0.0937,-0.0937 c 0.11992,-0.16179 0.26384,-0.36256 0.40625,-0.53125 0.54657,-0.64663 1.17049,-1.18597 1.84375,-1.6875 2.51214,-1.85645 5.67261,-2.75337 8.75,-2.5625 a 0.25559412,0.25559412 0 0 0 0.28125,-0.28125 c -0.19087,-3.0774 0.70605,-6.23786 2.5625,-8.75 0.50152,-0.67325 1.04087,-1.29718 1.6875,-1.84375 0.16868,-0.14242 0.36947,-0.28635 0.53125,-0.40625 l 0.0937,-0.0937 0.0312,0 0.0937,-0.0625 a 0.25559412,0.25559412 0 0 0 0.0312,0 c 0.10689,-0.0759 0.15213,-0.14452 0.21875,-0.1875 a 0.25559412,0.25559412 0 0 0 0.0312,0 c 0.34578,-0.22952 0.72096,-0.46276 1.09375,-0.65625 0.74477,-0.38855 1.50495,-0.68611 2.3125,-0.90625 0.80218,-0.21918 1.65054,-0.38337 2.46875,-0.4375 0.0102,-6.2e-4 0.0211,5.6e-4 0.0312,0 0.35483,-0.0197 0.72227,-0.009 1.09375,0 a 0.25559412,0.25559412 0 0 0 0.0312,0 c 2.36974,-0.21393 5.55166,-0.11986 9.09375,1.03125 3.69008,1.19883 6.07279,1.96565 8.03125,2.15625 1.95846,0.1906 3.49482,-0.22829 5.40625,-1.375 0.64968,-0.38979 1.11111,-0.36635 1.4375,-0.15625 0.32639,0.2101 0.54657,0.64824 0.5625,1.1875 0.0319,1.07851 -0.73393,2.50235 -2.84375,2.90625 -3.19345,0.61139 -7.393,-1.07093 -11.8125,-3.125 a 0.25559412,0.25559412 0 0 0 -0.125,-0.0312 0.25559412,0.25559412 0 0 0 -0.0937,0.0312 0.25559412,0.25559412 0 0 0 -0.125,0.15625 0.25559412,0.25559412 0 0 0 0,0.125 0.25559412,0.25559412 0 0 0 0.125,0.15625 c 0.96507,0.54182 1.90824,1.10744 2.84375,1.6875 1.35774,0.84481 2.68984,1.7598 4.0625,2.5625 0.94097,0.55024 1.911,1.04155 2.90625,1.4375 a 0.25559412,0.25559412 0 0 0 0.0625,0 c 1.38073,0.22813 3.00071,0.31707 4.1875,-0.40625 1.03063,-0.62848 1.37726,-1.49869 1.5625,-2.28125 0.18524,-0.78256 0.26706,-1.46347 0.75,-1.90625 1.25335,-1.15013 2.70969,0.13095 2.4375,1.03125 a 0.25559412,0.25559412 0 0 0 0,0.125 0.25559412,0.25559412 0 0 0 0.125,0.15625 0.25559412,0.25559412 0 0 0 0.0937,0.0312 0.25559412,0.25559412 0 0 0 0.28125,-0.15625 c 0.20194,-0.48829 0.30653,-1.56357 -0.9375,-2.625 -0.78018,-0.66541 -1.26263,-1.44296 -1.4375,-2.125 -0.17487,-0.68204 -0.0449,-1.24868 0.375,-1.6875 0.21391,-0.22383 0.53048,-0.39763 0.875,-0.4375 z m -54.375,0.9375 c 2.10683,0.68859 2.89293,1.98256 3.125,2.4375 a 0.25559412,0.25559412 0 0 0 0.15625,0.125 0.25559412,0.25559412 0 0 0 0.125,0 0.25559412,0.25559412 0 0 0 0.15625,-0.125 0.25559412,0.25559412 0 0 0 0.0312,-0.0937 0.25559412,0.25559412 0 0 0 0,-0.125 c -0.36913,-0.87717 -0.1336,-1.5613 0.15625,-2.0625 0.16609,2.0269 1.5938,2.9687 1.5938,2.9687 a 0.25559412,0.25559412 0 0 0 0.0937,0.0312 0.25559412,0.25559412 0 0 0 0.21875,-0.0937 c 0.51007,-0.63886 1.17759,-0.75338 1.75,-0.71875 0.27413,0.0166 0.50732,0.0734 0.6875,0.125 -1.06009,1.13983 -1.23394,2.43706 -1,3.375 0.12779,0.51237 0.35725,0.91218 0.625,1.15625 0.13388,0.12203 0.27474,0.22755 0.46875,0.21875 0.19401,-0.009 0.35866,-0.1644 0.4375,-0.34375 1.10866,-2.52008 3.0823,-3.16194 4.8125,-3.21875 1.44183,-0.0473 2.49624,0.30603 2.875,0.4375 -3.23789,3.96387 -3.11023,8.42391 -3.0625,9.15625 -0.73233,-0.0477 -5.19237,-0.17539 -9.15625,3.0625 -0.13147,-0.37876 -0.48484,-1.43317 -0.4375,-2.875 0.0568,-1.7302 0.69867,-3.70384 3.21875,-4.8125 0.17935,-0.0788 0.33495,-0.24349 0.34375,-0.4375 0.009,-0.19401 -0.0967,-0.33488 -0.21875,-0.46875 -0.24407,-0.26775 -0.64388,-0.49721 -1.15625,-0.625 -0.93794,-0.23393 -2.23517,-0.0601 -3.375,1 -0.0516,-0.18018 -0.10841,-0.41337 -0.125,-0.6875 -0.0346,-0.57242 0.0799,-1.23993 0.71875,-1.75 a 0.25559412,0.25559412 0 0 0 0.0937,-0.125 0.25559412,0.25559412 0 0 0 0,-0.125 0.25559412,0.25559412 0 0 0 -0.0312,-0.0625 c 0,0 -0.94179,-1.42771 -2.96875,-1.59375 0.50121,-0.28985 1.18536,-0.52536 2.0625,-0.15625 a 0.25559412,0.25559412 0 0 0 0.0312,0 0.25559412,0.25559412 0 0 0 0.125,0 0.25559412,0.25559412 0 0 0 0.15625,-0.125 0.25559412,0.25559412 0 0 0 0.0312,-0.0937 0.25559412,0.25559412 0 0 0 -0.125,-0.25 c -0.45495,-0.23207 -1.74891,-1.01817 -2.4375,-3.125 z m 26.0625,6.09375 c 0.68827,-0.0389 1.42988,0.11016 2.125,0.5 1.23623,0.69356 1.375,2.03125 1.375,2.03125 a 0.25559412,0.25559412 0 0 0 0,0.0312 0.25559412,0.25559412 0 0 0 0.125,0.15625 0.25559412,0.25559412 0 0 0 0.0937,0.0312 0.25559412,0.25559412 0 0 0 0.0937,0 c 1.4566,-0.4663 2.95893,-0.0793 3.9375,0.75 0.58915,0.49924 0.99307,1.1397 1.09375,1.84375 0.0702,0.49038 -0.0714,1.03804 -0.5625,1.46875 -0.49106,0.43071 -1.36788,0.76105 -2.84375,0.75 -0.9837,-0.008 -2.23895,-0.17891 -3.78125,-0.5625 -4.19159,-1.04207 -7.34073,-0.51715 -8.96875,-0.0937 0.5581,-0.49767 1.01988,-1.01998 1.28125,-1.53125 0.40451,-0.79127 0.46532,-1.61066 0.375,-2.5 -0.0949,-0.9347 0.0659,-1.56607 0.34375,-1.9375 0.27783,-0.37143 0.69665,-0.53002 1.28125,-0.5 0.5633,0.0291 0.79411,0.27579 0.9375,0.53125 0.14339,0.25546 0.15625,0.5 0.15625,0.5 a 0.25559412,0.25559412 0 0 0 0.0312,0.125 0.25559412,0.25559412 0 0 0 0.25,0.125 0.25559412,0.25559412 0 0 0 0.0937,-0.0312 0.25559412,0.25559412 0 0 0 0.125,-0.125 c 0.347,-0.8765 1.29544,-1.4979 2.4375,-1.5625 z m 15.53125,2.6875 c 0.4716,0.26659 0.8575,0.52799 1.4375,0.8125 2.03428,0.99787 4.59546,1.96323 6.78125,1.78125 0.75849,-0.0632 1.17242,0.0854 1.3125,0.21875 0.0802,0.0764 0.1062,0.11462 0.0937,0.1875 -0.0125,0.0729 -0.0782,0.19845 -0.21875,0.3125 -0.28118,0.22811 -0.86672,0.44407 -1.71875,0.4375 -1.64622,-0.0127 -4.29308,-0.88375 -7.6875,-3.75 z M 83.25,578.35896 c 1.73994,2.21713 2.29606,3.95924 2.25,5.21875 -0.0597,1.6322 -1.07925,2.43075 -1.59375,2.4375 -0.13577,0.002 -0.20476,-0.0534 -0.28125,-0.15625 -0.11726,-0.15776 -0.19192,-0.54708 0.0937,-1.21875 0.98008,-2.30398 0.32389,-4.59605 -0.46875,-6.28125 z m -18.625,3.78125 c 5.2788,-0.21905 9.04381,2.22444 11.34375,4.40625 1.16597,1.10612 1.81594,1.96789 2.21875,2.5625 -2.5593,-0.92172 -4.75,0.375 -4.75,0.375 a 0.25559412,0.25559412 0 0 0 -0.125,0.25 0.25559412,0.25559412 0 0 0 0.0312,0.0937 0.25559412,0.25559412 0 0 0 0.15625,0.125 0.25559412,0.25559412 0 0 0 0.125,0 0.25559412,0.25559412 0 0 0 0.0312,0 c 1.64883,-0.6112 3.73134,0.18606 4.78125,1.4375 0.80252,0.957 0.98852,2.14919 0.78125,3.21875 -0.20727,1.06956 -0.82405,2.00893 -1.5625,2.4375 -1.92581,1.11714 -3.375,-0.0312 -3.375,-0.0312 a 0.25559412,0.25559412 0 0 0 -0.0312,-0.0312 0.25559412,0.25559412 0 0 0 -0.125,-0.0312 0.25559412,0.25559412 0 0 0 -0.25,0.28125 0.25559412,0.25559412 0 0 0 0.0312,0.0937 0.25559412,0.25559412 0 0 0 0.0312,0.0312 c 0.37661,0.45195 0.88245,0.69683 1.5,0.84375 0.61755,0.14692 1.36937,0.21235 2.25,0.375 1.64543,0.30498 2.78146,1.85221 2.40625,4.25 -0.28527,1.82727 -0.21213,2.91529 -0.1875,3.25 -0.33471,-0.0246 -1.42273,-0.0978 -3.25,0.1875 -2.39777,0.37521 -3.94501,-0.76082 -4.25,-2.40625 -0.16265,-0.88063 -0.22808,-1.63246 -0.375,-2.25 -0.14692,-0.61754 -0.3918,-1.12339 -0.84375,-1.5 a 0.25559412,0.25559412 0 0 0 -0.0937,-0.0625 0.25559412,0.25559412 0 0 0 -0.125,0 0.25559412,0.25559412 0 0 0 -0.15625,0.125 0.25559412,0.25559412 0 0 0 -0.0312,0.0937 0.25559412,0.25559412 0 0 0 0.0625,0.1875 c 0,0 1.14837,1.44923 0.0312,3.375 -0.42857,0.73845 -1.36794,1.35523 -2.4375,1.5625 -1.06956,0.20727 -2.26175,0.0213 -3.21875,-0.78125 -1.25145,-1.0499 -2.0487,-3.13242 -1.4375,-4.78125 a 0.25559412,0.25559412 0 0 0 0,-0.0937 0.25559412,0.25559412 0 0 0 -0.0312,-0.125 0.25559412,0.25559412 0 0 0 -0.25,-0.125 0.25559412,0.25559412 0 0 0 -0.0937,0.0312 0.25559412,0.25559412 0 0 0 -0.0937,0.0937 c 0,0 -1.29669,2.1907 -0.375,4.75 -0.59461,-0.40281 -1.45638,-1.05278 -2.5625,-2.21875 -2.18184,-2.2999 -4.6253,-6.06495 -4.40625,-11.34375 0.0452,-1.08906 0.26166,-2.24841 0.5625,-3.46875 0.29748,0.88631 0.92881,2.5554 2.59375,4.625 2.2081,2.74478 5.9602,5.52235 11.96875,5.65625 a 0.25559412,0.25559412 0 0 0 0.0312,0 0.25559412,0.25559412 0 0 0 0.0937,-0.0312 0.25559412,0.25559412 0 0 0 0.0625,-0.0625 0.25559412,0.25559412 0 0 0 0.0312,0 0.25559412,0.25559412 0 0 0 0,-0.0312 0.25559412,0.25559412 0 0 0 0.0312,-0.0312 0.25559412,0.25559412 0 0 0 0.0937,-0.125 0.25559412,0.25559412 0 0 0 0,-0.0625 c -0.1339,-6.00855 -2.91147,-9.76065 -5.65625,-11.96875 -2.0696,-1.66494 -3.73869,-2.29627 -4.625,-2.59375 1.22034,-0.30084 2.37969,-0.51732 3.46875,-0.5625 z m -9.0625,5.34375 c -0.4234,1.62802 -0.94832,4.77716 0.0937,8.96875 0.38362,1.5424 0.55569,2.79793 0.5625,3.78125 0.0111,1.47587 -0.31929,2.35269 -0.75,2.84375 -0.43071,0.49106 -0.97837,0.63272 -1.46875,0.5625 -0.70405,-0.10068 -1.34451,-0.5046 -1.84375,-1.09375 -0.82918,-0.97859 -1.2163,-2.48091 -0.75,-3.9375 a 0.25559412,0.25559412 0 0 0 0,-0.125 0.25559412,0.25559412 0 0 0 -0.125,-0.15625 0.25559412,0.25559412 0 0 0 -0.0937,-0.0312 c 0,0 -1.33769,-0.13877 -2.03125,-1.375 -0.38984,-0.69513 -0.53886,-1.43673 -0.5,-2.125 0.0646,-1.14205 0.68599,-2.0905 1.5625,-2.4375 a 0.25559412,0.25559412 0 0 0 0.0312,-0.0312 0.25559412,0.25559412 0 0 0 0.125,-0.15625 0.25559412,0.25559412 0 0 0 0,-0.125 0.25559412,0.25559412 0 0 0 -0.125,-0.15625 0.25559412,0.25559412 0 0 0 -0.0937,-0.0312 0.25559412,0.25559412 0 0 0 -0.0312,0 c 0,0 -0.24454,-0.0128 -0.5,-0.15625 -0.25546,-0.1434 -0.50213,-0.37421 -0.53125,-0.9375 -0.03,-0.5846 0.12857,-1.00342 0.5,-1.28125 0.37143,-0.27783 1.0028,-0.43864 1.9375,-0.34375 0.88934,0.0903 1.70873,0.0295 2.5,-0.375 0.51127,-0.26137 1.03358,-0.72315 1.53125,-1.28125 z m -3.375,21.9375 c 1.6852,0.79264 3.97727,1.44883 6.28125,0.46875 0.54024,-0.22977 0.92962,-0.25515 1.125,-0.1875 0.19538,0.0676 0.25243,0.17696 0.25,0.375 -0.007,0.5145 -0.8053,1.53406 -2.4375,1.59375 -1.25951,0.0461 -3.00162,-0.51006 -5.21875,-2.25 z m -0.84375,0.90625 c 2.86625,3.39441 3.73732,6.04127 3.75,7.6875 0.007,0.85203 -0.20939,1.43757 -0.4375,1.71875 -0.11405,0.14059 -0.23961,0.2063 -0.3125,0.21875 -0.0729,0.0124 -0.11111,-0.0136 -0.1875,-0.0937 -0.13335,-0.13994 -0.28196,-0.554 -0.21875,-1.3125 0.18197,-2.18579 -0.78338,-4.74697 -1.78125,-6.78125 -0.28451,-0.58 -0.54591,-0.9659 -0.8125,-1.4375 z"
         style="fill:#000000;fill-opacity:1;stroke:none" />
      <path
         inkscape:connector-curvature="0"
         id="path7765-4-2-7"
         d="m 260.34375,1018.9062 c 0.45911,-0.77 1.95548,-2.785 5.46875,-2.9375 2.17795,-0.095 3.76912,0.3731 5.40625,0.9687 1.63713,0.5957 3.34082,1.3267 5.71875,1.75 a 0.25559412,0.25559412 0 0 0 0.25,-0.125 0.25559412,0.25559412 0 0 0 0.0312,-0.125 0.25559412,0.25559412 0 0 0 -0.0312,-0.125 0.25559412,0.25559412 0 0 0 -0.15625,-0.125 c 0,0 -0.88427,-0.2538 -1.75,-0.9062 -0.83959,-0.6328 -1.62652,-1.5995 -1.5625,-3.0625 0.18192,-0.076 0.74874,-0.2677 1.75,-0.3125 1.19218,-0.053 2.86303,0.1801 4.78125,1.3437 3.25828,1.9764 6.84958,2.9254 13.6875,3.3125 a 0.25559412,0.25559412 0 0 0 0.125,-0.031 0.25559412,0.25559412 0 0 0 0.125,-0.25 0.25559412,0.25559412 0 0 0 -0.0312,-0.094 0.25559412,0.25559412 0 0 0 -0.15625,-0.125 0.25559412,0.25559412 0 0 0 -0.0312,0 c 0,0 -2.63961,-0.4065 -3.5625,-2.8437 0.49992,0.044 2.37903,0.1711 5.03125,-0.7188 0.049,0.1069 0.0587,0.1503 0.21875,0.375 0.25296,0.3551 0.67429,0.8356 1.34375,1.3125 1.33893,0.9538 3.69439,1.9302 7.6875,2.125 a 0.25559412,0.25559412 0 0 0 0.125,-0.031 0.25559412,0.25559412 0 0 0 0.125,-0.25 0.25559412,0.25559412 0 0 0 -0.0312,-0.094 0.25559412,0.25559412 0 0 0 0,-0.031 c 0,0 -0.96068,-1.3228 -0.90625,-2.625 0.0818,0.078 0.12663,0.1295 0.25,0.2189 0.54223,0.392 1.5169,0.8965 3.34375,1.375 3.62842,0.9502 10.62808,1.8329 24.0625,1.6875 l 0.0312,0.3436 -71.34375,0 z m 73.4375,0 0,-2.1875 a 0.25559412,0.25559412 0 0 0 0,-0.062 0.25559412,0.25559412 0 0 0 -0.125,-0.1564 0.25559412,0.25559412 0 0 0 -0.0937,-0.031 0.25559412,0.25559412 0 0 0 -0.0312,0 l -1.34375,0 0,-1.5937 a 0.25559412,0.25559412 0 0 0 0,-0.062 0.25559412,0.25559412 0 0 0 -0.125,-0.1563 0.25559412,0.25559412 0 0 0 -0.0937,-0.031 0.25559412,0.25559412 0 0 0 -0.0312,0 l -1,0 0,-1.5625 1.5625,0 0,1 a 0.25559412,0.25559412 0 0 0 0,0.062 0.25559412,0.25559412 0 0 0 0.125,0.1563 0.25559412,0.25559412 0 0 0 0.0937,0.031 0.25559412,0.25559412 0 0 0 0.0312,0 l 1.59375,0 0,1.3437 a 0.25559412,0.25559412 0 0 0 0,0.062 0.25559412,0.25559412 0 0 0 0.125,0.1564 0.25559412,0.25559412 0 0 0 0.0937,0.031 0.25559412,0.25559412 0 0 0 0.0312,0 l 2.1875,0 0,3 -3,0 z m 3,-5.0938 -0.34375,-0.031 c 0.1455,-13.4344 -0.7372,-20.43408 -1.6875,-24.06248 -0.47846,-1.8269 -0.98294,-2.8015 -1.375,-3.3438 -0.0892,-0.1233 -0.14085,-0.1681 -0.21875,-0.25 1.30225,-0.054 2.625,0.9063 2.625,0.9063 a 0.25559412,0.25559412 0 0 0 0.1875,0.031 0.25559412,0.25559412 0 0 0 0.0937,-0.031 0.25559412,0.25559412 0 0 0 0.125,-0.1563 0.25559412,0.25559412 0 0 0 0,-0.062 c -0.19482,-3.9931 -1.1712,-6.34852 -2.125,-7.68749 -0.4769,-0.6694 -0.95739,-1.0907 -1.3125,-1.3437 -0.2247,-0.1601 -0.2681,-0.1697 -0.375,-0.2188 0.88983,-2.6522 0.76312,-4.5313 0.71875,-5.0312 2.43722,0.9229 2.84375,3.5625 2.84375,3.5625 a 0.25559412,0.25559412 0 0 0 0.0312,0.094 0.25559412,0.25559412 0 0 0 0.25,0.125 0.25559412,0.25559412 0 0 0 0.0937,-0.031 0.25559412,0.25559412 0 0 0 0.125,-0.1563 0.25559412,0.25559412 0 0 0 0,-0.062 c -0.38709,-6.8379 -1.33613,-10.4292 -3.3125,-13.6875 -1.16358,-1.9182 -1.39712,-3.589 -1.34375,-4.7812 0.0448,-1.0013 0.23668,-1.5681 0.3125,-1.75 1.46307,-0.064 2.42977,0.7229 3.0625,1.5625 0.65243,0.8657 0.90625,1.75 0.90625,1.75 a 0.25559412,0.25559412 0 0 0 0.1875,0.1875 0.25559412,0.25559412 0 0 0 0.28125,-0.125 0.25559412,0.25559412 0 0 0 0.0312,-0.125 0.25559412,0.25559412 0 0 0 0,-0.031 c -0.42329,-2.3779 -1.1543,-4.0816 -1.75,-5.7188 -0.5957,-1.6371 -1.06359,-3.2283 -0.96875,-5.4062 0.15255,-3.5133 2.16749,-5.0096 2.9375,-5.4688 l 0,71.34387 z m -61.65625,-1.25 c -0.52326,0.061 -1.12315,-0.131 -1.65625,-0.6875 -0.53309,-0.5565 -0.99974,-1.4964 -1.15625,-2.9375 -0.22888,-2.1037 0.32365,-3.743 1.375,-4.9999 1.05135,-1.2569 2.62237,-2.1262 4.4375,-2.5626 1.50605,-0.3622 2.89282,-0.2471 4.0625,0.062 0.79266,0.1718 1.5671,0.442 2.3125,0.7501 0.74885,0.3099 1.47511,0.654 2.1875,1.0312 1.42662,0.7621 2.77711,1.5472 4.15625,2.3438 1.37242,0.8014 2.76796,1.6191 4.1875,2.3125 0.42749,0.2068 0.88528,0.4149 1.3125,0.5938 a 0.25559412,0.25559412 0 0 0 0.0312,0 0.25559412,0.25559412 0 0 0 0.125,0 0.25559412,0.25559412 0 0 0 0.15625,-0.125 0.25559412,0.25559412 0 0 0 0.0312,-0.125 0.25559412,0.25559412 0 0 0 -0.15625,-0.2188 c -0.55641,-0.2571 -1.08547,-0.5456 -1.59375,-0.8437 -5.6526,-3.3155 -6.28683,-7.63098 -5.4375,-10.34388 0.69641,-2.2247 2.36051,-2.8095 3.5625,-2.4375 0.601,0.186 1.10469,0.6112 1.3125,1.25 0.20781,0.6388 0.13801,1.4944 -0.4375,2.5625 -0.75277,1.3977 -0.54363,3.46008 0.53125,5.40628 1.07488,1.9462 3.0189,3.7976 5.875,4.7813 4.56163,1.5722 7.97766,0.3117 9.71875,-0.7187 a 0.25559412,0.25559412 0 0 0 0.0312,-0.031 c 0.14673,-0.1164 0.18119,-0.2134 0.1875,-0.2188 0.57427,-0.4887 1.11162,-1.0456 1.5625,-1.6563 0.90039,-1.2258 1.54228,-2.6445 1.9375,-4.1251 a 0.25559412,0.25559412 0 0 0 0,-0.062 0.25559412,0.25559412 0 0 0 -0.28125,-0.25 0.25559412,0.25559412 0 0 0 -0.0937,0.031 0.25559412,0.25559412 0 0 0 -0.0937,0.062 c -0.12576,0.1746 -0.25429,0.3505 -0.40625,0.5 -0.53564,0.5276 -1.12117,0.7611 -1.625,0.7814 -0.50383,0.02 -0.90188,-0.1521 -1.09375,-0.4688 -0.22327,-0.3685 -0.21795,-0.6584 -0.0312,-0.9376 0.1867,-0.2791 0.60407,-0.5526 1.25,-0.7187 1.10672,-0.2848 1.86236,-0.80168 2.34375,-1.46878 0.36978,-0.5129 0.45346,-1.0921 0.46875,-1.5312 8e-5,0 0.002,-0.018 0,-0.062 a 0.25559412,0.25559412 0 0 0 -0.0312,-0.125 0.25559412,0.25559412 0 0 0 -0.1875,-0.125 c -0.53668,-0.096 -1.06735,-0.2439 -1.59375,-0.4063 -0.40262,-0.1247 -0.78023,-0.2525 -1.15625,-0.4062 -0.37401,-0.156 -0.75439,-0.3372 -1.125,-0.5313 -0.37607,-0.1978 -0.71877,-0.3795 -1.0625,-0.5937 -0.34101,-0.216 -0.66816,-0.4736 -1,-0.7188 -0.66096,-0.4856 -1.31024,-1.0148 -1.875,-1.5937 -1.13862,-1.1609 -2.0747,-2.4972 -2.71875,-3.9688 -0.13556,-0.3067 -0.20564,-0.6464 -0.3125,-0.9687 0.14703,0.303 0.27492,0.6183 0.4375,0.9062 0.78899,1.3907 1.85479,2.619 3.03125,3.6563 0.28461,0.2517 0.55001,0.538 0.875,0.7812 0.32075,0.2428 0.64939,0.4191 0.96875,0.625 0.31514,0.2048 0.61252,0.4273 0.96875,0.625 0.34916,0.1937 0.72444,0.3441 1.0625,0.5 0.33923,0.1558 0.68294,0.365 1.0625,0.5 0.3766,0.1379 0.76568,0.2168 1.125,0.3125 0.36304,0.097 0.73882,0.1562 1.09375,0.2188 a 0.25559412,0.25559412 0 0 0 0.25,-0.125 0.25559412,0.25559412 0 0 0 0.0312,-0.125 0.25559412,0.25559412 0 0 0 0,-0.031 c -0.0626,-0.3549 -0.12219,-0.7307 -0.21875,-1.0938 -0.0958,-0.3593 -0.17461,-0.7484 -0.3125,-1.125 -0.13508,-0.3795 -0.34427,-0.7232 -0.5,-1.0625 -0.15597,-0.338 -0.30637,-0.7133 -0.5,-1.0625 -0.19771,-0.3562 -0.42026,-0.6536 -0.625,-0.9687 -0.20593,-0.3194 -0.3823,-0.648 -0.625,-0.9688 -0.24327,-0.325 -0.52961,-0.5903 -0.78125,-0.875 -1.03725,-1.1764 -2.26565,-2.2422 -3.65625,-3.0312 -0.28794,-0.1626 -0.60325,-0.2905 -0.90625,-0.4375 0.32233,0.1069 0.66201,0.1769 0.96875,0.3125 1.4716,0.6441 2.80789,1.5801 3.96875,2.7187 0.57886,0.5648 1.10811,1.2141 1.59375,1.875 0.24514,0.3319 0.50279,0.659 0.71875,1 0.21419,0.3438 0.39595,0.6865 0.59375,1.0625 0.19405,0.3707 0.37529,0.751 0.53125,1.125 0.15369,0.3761 0.28149,0.7537 0.40625,1.1563 0.16232,0.5264 0.3101,1.0571 0.40625,1.5937 a 0.25559412,0.25559412 0 0 0 0.0312,0.094 0.25559412,0.25559412 0 0 0 0.15625,0.125 0.25559412,0.25559412 0 0 0 0.0625,0 c 0.0445,0 0.064,10e-5 0.0625,0 0.43913,-0.015 1.01829,-0.099 1.53125,-0.4687 0.66707,-0.4814 1.184,-1.237 1.46875,-2.3438 0.16613,-0.646 0.43964,-1.0633 0.71875,-1.25 0.27911,-0.1866 0.56902,-0.192 0.9375,0.031 0.31667,0.1919 0.48902,0.59 0.46875,1.0938 -0.0203,0.5038 -0.25375,1.0894 -0.78125,1.625 -0.14956,0.152 -0.32547,0.2805 -0.5,0.4062 a 0.25559412,0.25559412 0 0 0 -0.0625,0.094 0.25559412,0.25559412 0 0 0 -0.0312,0.125 0.25559412,0.25559412 0 0 0 0.0312,0.125 0.25559412,0.25559412 0 0 0 0.25,0.125 0.25559412,0.25559412 0 0 0 0.0312,0 c 1.4805,-0.3952 2.89919,-1.0371 4.125,-1.9375 0.61071,-0.4508 1.16752,-0.9882 1.65625,-1.5625 0.005,-0.01 0.10234,-0.041 0.21875,-0.1875 a 0.25559412,0.25559412 0 0 0 0.0312,-0.031 c 1.03048,-1.741 2.29097,-5.1571 0.71875,-9.7187 -0.9837,-2.8561 -2.83508,-4.80009 -4.78125,-5.87499 -1.94617,-1.0749 -4.00851,-1.284 -5.40625,-0.5313 -1.06812,0.5756 -1.9237,0.6454 -2.5625,0.4375 -0.6388,-0.2078 -1.064,-0.7115 -1.25,-1.3125 -0.37199,-1.2019 0.21277,-2.866 2.4375,-3.5625 2.71291,-0.8493 7.02826,-0.215 10.34375,5.4375 0.2982,0.5083 0.58667,1.0374 0.84375,1.5938 a 0.25559412,0.25559412 0 0 0 0.25,0.1562 0.25559412,0.25559412 0 0 0 0.0937,-0.031 0.25559412,0.25559412 0 0 0 0.125,-0.1562 0.25559412,0.25559412 0 0 0 0,-0.125 0.25559412,0.25559412 0 0 0 0,-0.031 c -0.17884,-0.4272 -0.38698,-0.885 -0.59375,-1.3125 -0.6934,-1.4195 -1.51111,-2.8151 -2.3125,-4.1875 -0.79657,-1.3791 -1.58166,-2.7296 -2.34375,-4.1563 -0.37722,-0.7124 -0.72135,-1.4386 -1.03125,-2.1875 -0.30795,-0.7454 -0.57819,-1.5198 -0.75,-2.3125 -0.30959,-1.1696 -0.4247,-2.5564 -0.0625,-4.0625 0.4364,-1.8151 1.30563,-3.3861 2.5625,-4.4375 1.25687,-1.0513 2.89622,-1.6038 5,-1.375 1.44108,0.1566 2.38095,0.6232 2.9375,1.1563 0.55655,0.5331 0.74814,1.133 0.6875,1.6562 -0.0399,0.3446 -0.21367,0.6611 -0.4375,0.875 -0.43882,0.4199 -1.00546,0.5499 -1.6875,0.375 -0.68204,-0.1748 -1.45959,-0.6573 -2.125,-1.4375 -1.06143,-1.244 -2.13672,-1.1394 -2.625,-0.9375 a 0.25559412,0.25559412 0 0 0 -0.125,0.125 0.25559412,0.25559412 0 0 0 -0.0312,0.094 0.25559412,0.25559412 0 0 0 0.125,0.25 0.25559412,0.25559412 0 0 0 0.125,0.031 0.25559412,0.25559412 0 0 0 0.0625,0 c 0.9002,-0.2721 2.18137,1.1842 1.03125,2.4375 -0.44278,0.483 -1.12369,0.5648 -1.90625,0.75 -0.78256,0.1853 -1.65277,0.5319 -2.28125,1.5625 -0.72332,1.1868 -0.63438,2.8068 -0.40625,4.1875 a 0.25559412,0.25559412 0 0 0 0,0.062 c 0.39594,0.9953 0.88726,1.9653 1.4375,2.9063 0.8027,1.3727 1.7177,2.7048 2.5625,4.0625 0.58006,0.9355 1.14568,1.8787 1.6875,2.8437 a 0.25559412,0.25559412 0 0 0 0.0937,0.094 0.25559412,0.25559412 0 0 0 0.125,0.031 0.25559412,0.25559412 0 0 0 0.25,-0.2812 0.25559412,0.25559412 0 0 0 -0.0312,-0.062 c -2.05407,-4.4195 -3.73639,-8.6191 -3.125,-11.8125 0.4039,-2.1098 1.82774,-2.8756 2.90625,-2.8438 0.53926,0.016 0.9774,0.2362 1.1875,0.5625 0.2101,0.3264 0.23354,0.7879 -0.15625,1.4375 -1.14671,1.9115 -1.5656,3.4478 -1.375,5.4063 0.1906,1.9585 0.95741,4.3412 2.15625,8.0312 1.1511,3.5421 1.24518,6.72409 1.03125,9.09379 a 0.25559412,0.25559412 0 0 0 0,0.031 c 0.009,0.3715 0.0197,0.7389 0,1.0938 -5.6e-4,0.01 6.2e-4,0.021 0,0.031 -0.0541,0.8182 -0.21831,1.6665 -0.4375,2.4687 -0.22014,0.8076 -0.5177,1.5677 -0.90625,2.3125 -0.19349,0.3728 -0.42674,0.748 -0.65625,1.0938 a 0.25559412,0.25559412 0 0 0 0,0.031 c -0.043,0.067 -0.11167,0.1119 -0.1875,0.2187 a 0.25559412,0.25559412 0 0 0 0,0.031 l -0.0625,0.094 0,0.031 -0.0937,0.094 c -0.11992,0.1618 -0.26384,0.3626 -0.40625,0.5313 -0.54657,0.6466 -1.17049,1.1859 -1.84375,1.6875 -2.51214,1.8564 -5.67261,2.7533 -8.75,2.5625 a 0.25559412,0.25559412 0 0 0 -0.28125,0.2812 c 0.19087,3.07738 -0.70605,6.23798 -2.5625,8.75008 -0.50152,0.6733 -1.04087,1.2972 -1.6875,1.8438 -0.16868,0.1424 -0.36947,0.2863 -0.53125,0.4062 l -0.0937,0.094 -0.0312,0 -0.0937,0.062 a 0.25559412,0.25559412 0 0 0 -0.0312,0 c -0.10689,0.076 -0.15213,0.1446 -0.21875,0.1875 a 0.25559412,0.25559412 0 0 0 -0.0312,0 c -0.34578,0.2295 -0.72096,0.4628 -1.09375,0.6564 -0.74477,0.3885 -1.50495,0.686 -2.3125,0.9061 -0.80218,0.2192 -1.65054,0.3834 -2.46875,0.4375 -0.0102,6e-4 -0.0211,-6e-4 -0.0312,0 -0.35483,0.02 -0.72227,0.01 -1.09375,0 a 0.25559412,0.25559412 0 0 0 -0.0312,0 c -2.36974,0.2139 -5.55166,0.1199 -9.09375,-1.0311 -3.69008,-1.199 -6.07279,-1.9658 -8.03125,-2.1564 -1.95846,-0.1906 -3.49482,0.2283 -5.40625,1.375 -0.64968,0.3898 -1.11111,0.3665 -1.4375,0.1564 -0.32639,-0.2102 -0.54657,-0.6484 -0.5625,-1.1876 -0.0319,-1.0786 0.73393,-2.5024 2.84375,-2.9063 3.19345,-0.6114 7.393,1.0709 11.8125,3.125 a 0.25559412,0.25559412 0 0 0 0.125,0.031 0.25559412,0.25559412 0 0 0 0.0937,-0.031 0.25559412,0.25559412 0 0 0 0.125,-0.1562 0.25559412,0.25559412 0 0 0 0,-0.125 0.25559412,0.25559412 0 0 0 -0.125,-0.1563 c -0.96507,-0.5418 -1.90824,-1.1074 -2.84375,-1.6875 -1.35774,-0.8448 -2.68984,-1.7598 -4.0625,-2.5625 -0.94097,-0.5502 -1.911,-1.0415 -2.90625,-1.4375 a 0.25559412,0.25559412 0 0 0 -0.0625,0 c -1.38073,-0.2281 -3.00071,-0.3171 -4.1875,0.4063 -1.03063,0.6284 -1.37726,1.4986 -1.5625,2.2812 -0.18524,0.7826 -0.26706,1.4635 -0.75,1.9063 -1.25335,1.1501 -2.70969,-0.131 -2.4375,-1.0313 a 0.25559412,0.25559412 0 0 0 0,-0.125 0.25559412,0.25559412 0 0 0 -0.125,-0.1562 0.25559412,0.25559412 0 0 0 -0.0937,-0.031 0.25559412,0.25559412 0 0 0 -0.28125,0.1562 c -0.20194,0.4883 -0.30653,1.5636 0.9375,2.625 0.78018,0.6655 1.26263,1.443 1.4375,2.125 0.17487,0.682 0.0449,1.2488 -0.375,1.6875 -0.21391,0.2238 -0.53048,0.3976 -0.875,0.4375 z m 54.375,-0.9375 c -2.10683,-0.6886 -2.89293,-1.9826 -3.125,-2.4375 a 0.25559412,0.25559412 0 0 0 -0.15625,-0.125 0.25559412,0.25559412 0 0 0 -0.125,0 0.25559412,0.25559412 0 0 0 -0.15625,0.125 0.25559412,0.25559412 0 0 0 -0.0312,0.094 0.25559412,0.25559412 0 0 0 0,0.125 c 0.36913,0.8772 0.1336,1.5613 -0.15625,2.0625 -0.16609,-2.0269 -1.5938,-2.9686 -1.5938,-2.9686 a 0.25559412,0.25559412 0 0 0 -0.0937,-0.031 0.25559412,0.25559412 0 0 0 -0.21875,0.094 c -0.51007,0.6389 -1.17759,0.7534 -1.75,0.7188 -0.27413,-0.017 -0.50732,-0.073 -0.6875,-0.125 1.06009,-1.1399 1.23394,-2.4371 1,-3.3751 -0.12779,-0.5123 -0.35725,-0.9121 -0.625,-1.1562 -0.13388,-0.122 -0.27474,-0.2276 -0.46875,-0.2188 -0.19401,0.01 -0.35866,0.1644 -0.4375,0.3438 -1.10866,2.5201 -3.0823,3.1619 -4.8125,3.2188 -1.44183,0.047 -2.49624,-0.3061 -2.875,-0.4375 3.23789,-3.9639 3.11023,-8.42408 3.0625,-9.15638 0.73233,0.048 5.19237,0.1754 9.15625,-3.0625 0.13147,0.3788 0.48484,1.4332 0.4375,2.875 -0.0568,1.7302 -0.69867,3.70378 -3.21875,4.81258 -0.17935,0.079 -0.33495,0.2435 -0.34375,0.4375 -0.009,0.194 0.0967,0.3349 0.21875,0.4687 0.24407,0.2678 0.64388,0.4973 1.15625,0.625 0.93794,0.234 2.23517,0.06 3.375,-1 0.0516,0.1802 0.10841,0.4134 0.125,0.6875 0.0346,0.5725 -0.0799,1.24 -0.71875,1.7501 a 0.25559412,0.25559412 0 0 0 -0.0937,0.125 0.25559412,0.25559412 0 0 0 0,0.125 0.25559412,0.25559412 0 0 0 0.0312,0.062 c 0,0 0.94179,1.4277 2.96875,1.5937 -0.50121,0.2899 -1.18536,0.5254 -2.0625,0.1563 a 0.25559412,0.25559412 0 0 0 -0.0312,0 0.25559412,0.25559412 0 0 0 -0.125,0 0.25559412,0.25559412 0 0 0 -0.15625,0.125 0.25559412,0.25559412 0 0 0 -0.0312,0.094 0.25559412,0.25559412 0 0 0 0.125,0.25 c 0.45495,0.2321 1.74891,1.0182 2.4375,3.125 z m -26.0625,-6.0937 c -0.68827,0.039 -1.42988,-0.1101 -2.125,-0.5 -1.23623,-0.6935 -1.375,-2.0312 -1.375,-2.0312 a 0.25559412,0.25559412 0 0 0 0,-0.031 0.25559412,0.25559412 0 0 0 -0.125,-0.1563 0.25559412,0.25559412 0 0 0 -0.0937,-0.031 0.25559412,0.25559412 0 0 0 -0.0937,0 c -1.4566,0.4663 -2.95893,0.079 -3.9375,-0.75 -0.58915,-0.4993 -0.99307,-1.1398 -1.09375,-1.8438 -0.0702,-0.49038 0.0714,-1.03798 0.5625,-1.46878 0.49106,-0.4307 1.36788,-0.761 2.84375,-0.75 0.9837,0.01 2.23895,0.179 3.78125,0.5625 4.19159,1.0421 7.34073,0.5172 8.96875,0.094 -0.5581,0.4977 -1.01988,1.02 -1.28125,1.53128 -0.40451,0.7913 -0.46532,1.6107 -0.375,2.5001 0.0949,0.9347 -0.0659,1.5661 -0.34375,1.9375 -0.27783,0.3714 -0.69665,0.53 -1.28125,0.5 -0.5633,-0.029 -0.79411,-0.2758 -0.9375,-0.5313 -0.14339,-0.2554 -0.15625,-0.5 -0.15625,-0.5 a 0.25559412,0.25559412 0 0 0 -0.0312,-0.125 0.25559412,0.25559412 0 0 0 -0.25,-0.125 0.25559412,0.25559412 0 0 0 -0.0937,0.031 0.25559412,0.25559412 0 0 0 -0.125,0.125 c -0.347,0.8765 -1.29544,1.4979 -2.4375,1.5625 z m -15.53125,-2.6875 c -0.4716,-0.2665 -0.8575,-0.5279 -1.4375,-0.8125 -2.03428,-0.9979 -4.59546,-1.9633 -6.78125,-1.7813 -0.75849,0.063 -1.17242,-0.085 -1.3125,-0.2188 -0.0802,-0.076 -0.1062,-0.11458 -0.0937,-0.18748 0.0125,-0.073 0.0782,-0.1984 0.21875,-0.3125 0.28118,-0.2281 0.86672,-0.444 1.71875,-0.4375 1.64622,0.013 4.29308,0.8838 7.6875,3.75008 z M 288.8125,1002 c -1.73994,-2.21718 -2.29606,-3.95928 -2.25,-5.21888 0.0597,-1.6322 1.07925,-2.4307 1.59375,-2.4375 0.13577,0 0.20476,0.053 0.28125,0.1563 0.11726,0.1578 0.19192,0.5471 -0.0937,1.2187 -0.98008,2.304 -0.32389,4.59608 0.46875,6.28138 z m 18.625,-3.78138 c -5.2788,0.2191 -9.04381,-2.2244 -11.34375,-4.4062 -1.16597,-1.1061 -1.81594,-1.9679 -2.21875,-2.5625 2.5593,0.9217 4.75,-0.375 4.75,-0.375 a 0.25559412,0.25559412 0 0 0 0.125,-0.25 0.25559412,0.25559412 0 0 0 -0.0312,-0.094 0.25559412,0.25559412 0 0 0 -0.15625,-0.125 0.25559412,0.25559412 0 0 0 -0.125,0 0.25559412,0.25559412 0 0 0 -0.0312,0 c -1.64883,0.6112 -3.73134,-0.1861 -4.78125,-1.4375 -0.80252,-0.957 -0.98852,-2.1492 -0.78125,-3.2188 0.20727,-1.0695 0.82405,-2.0089 1.5625,-2.4375 1.92581,-1.1171 3.375,0.031 3.375,0.031 a 0.25559412,0.25559412 0 0 0 0.0312,0.031 0.25559412,0.25559412 0 0 0 0.125,0.031 0.25559412,0.25559412 0 0 0 0.25,-0.2812 0.25559412,0.25559412 0 0 0 -0.0312,-0.094 0.25559412,0.25559412 0 0 0 -0.0312,-0.031 c -0.37661,-0.452 -0.88245,-0.6968 -1.5,-0.8438 -0.61755,-0.1469 -1.36937,-0.2123 -2.25,-0.37495 -1.64543,-0.30498 -2.78146,-1.85221 -2.40625,-4.25004 0.28527,-1.8272 0.21213,-2.9152 0.1875,-3.25 0.33471,0.025 1.42273,0.098 3.25,-0.1875 2.39777,-0.3752 3.94501,0.7609 4.25,2.4063 0.16265,0.8806 0.22808,1.6325 0.375,2.25 0.14692,0.6175 0.3918,1.12338 0.84375,1.49999 a 0.25559412,0.25559412 0 0 0 0.0937,0.0625 0.25559412,0.25559412 0 0 0 0.125,0 0.25559412,0.25559412 0 0 0 0.15625,-0.125 0.25559412,0.25559412 0 0 0 0.0312,-0.0937 0.25559412,0.25559412 0 0 0 -0.0625,-0.1875 c 0,0 -1.14837,-1.44919 -0.0312,-3.37499 0.42857,-0.7385 1.36794,-1.3552 2.4375,-1.5625 1.06956,-0.2073 2.26175,-0.021 3.21875,0.7812 1.25145,1.0499 2.0487,3.1325 1.4375,4.78129 a 0.25559412,0.25559412 0 0 0 0,0.0937 0.25559412,0.25559412 0 0 0 0.0312,0.125 0.25559412,0.25559412 0 0 0 0.25,0.125 0.25559412,0.25559412 0 0 0 0.0937,-0.0312 0.25559412,0.25559412 0 0 0 0.0937,-0.0937 c 0,0 1.29669,-2.19069 0.375,-4.74999 0.59461,0.4028 1.45638,1.0528 2.5625,2.2187 2.18184,2.29994 4.6253,6.06499 4.40625,11.34379 -0.0452,1.0891 -0.26166,2.2484 -0.5625,3.4687 -0.29748,-0.8863 -0.92881,-2.5554 -2.59375,-4.625 -2.2081,-2.7447 -5.9602,-5.5223 -11.96875,-5.6562 a 0.25559412,0.25559412 0 0 0 -0.0312,0 0.25559412,0.25559412 0 0 0 -0.0937,0.031 0.25559412,0.25559412 0 0 0 -0.0625,0.062 0.25559412,0.25559412 0 0 0 -0.0312,0 0.25559412,0.25559412 0 0 0 0,0.031 0.25559412,0.25559412 0 0 0 -0.0312,0.031 0.25559412,0.25559412 0 0 0 -0.0937,0.125 0.25559412,0.25559412 0 0 0 0,0.062 c 0.1339,6.0085 2.91147,9.7606 5.65625,11.9687 2.0696,1.665 3.73869,2.2963 4.625,2.5938 -1.22034,0.3008 -2.37969,0.5173 -3.46875,0.5625 z m 9.0625,-5.3437 c 0.4234,-1.628 0.94832,-4.7772 -0.0937,-8.9688 -0.38362,-1.5424 -0.55569,-2.79788 -0.5625,-3.7812 -0.0111,-1.47589 0.31929,-2.35269 0.75,-2.84379 0.43071,-0.491 0.97837,-0.6327 1.46875,-0.5625 0.70405,0.1007 1.34451,0.5046 1.84375,1.0938 0.82918,0.9786 1.2163,2.4809 0.75,3.93749 a 0.25559412,0.25559412 0 0 0 0,0.125 0.25559412,0.25559412 0 0 0 0.125,0.1562 0.25559412,0.25559412 0 0 0 0.0937,0.031 c 0,0 1.33769,0.1388 2.03125,1.375 0.38984,0.6952 0.53886,1.4368 0.5,2.125 -0.0646,1.1421 -0.68599,2.0905 -1.5625,2.4375 a 0.25559412,0.25559412 0 0 0 -0.0312,0.031 0.25559412,0.25559412 0 0 0 -0.125,0.1563 0.25559412,0.25559412 0 0 0 0,0.125 0.25559412,0.25559412 0 0 0 0.125,0.1562 0.25559412,0.25559412 0 0 0 0.0937,0.031 0.25559412,0.25559412 0 0 0 0.0312,0 c 0,0 0.24454,0.013 0.5,0.1563 0.25546,0.1434 0.50213,0.3742 0.53125,0.9375 0.03,0.5846 -0.12857,1.0034 -0.5,1.2812 -0.37143,0.2779 -1.0028,0.4387 -1.9375,0.3438 -0.88934,-0.09 -1.70873,-0.029 -2.5,0.375 -0.51127,0.2614 -1.03358,0.7231 -1.53125,1.2812 z m 3.375,-21.93749 c -1.6852,-0.7926 -3.97727,-1.4488 -6.28125,-0.4688 -0.54024,0.2298 -0.92962,0.2552 -1.125,0.1875 -0.19538,-0.068 -0.25243,-0.1769 -0.25,-0.375 0.007,-0.5145 0.8053,-1.534 2.4375,-1.5937 1.25951,-0.046 3.00162,0.5101 5.21875,2.25 z m 0.84375,-0.9063 c -2.86625,-3.3944 -3.73732,-6.0412 -3.75,-7.6875 -0.007,-0.852 0.20939,-1.4375 0.4375,-1.7187 0.11405,-0.1406 0.23961,-0.2063 0.3125,-0.2188 0.0729,-0.012 0.11111,0.014 0.1875,0.094 0.13335,0.14 0.28196,0.554 0.21875,1.3125 -0.18197,2.1858 0.78338,4.747 1.78125,6.7813 0.28451,0.58 0.54591,0.9659 0.8125,1.4375 z"
         style="fill:#000000;fill-opacity:1;stroke:none" />
      <path
         inkscape:connector-curvature="0"
         style="fill:#000000;fill-opacity:1;stroke:none"
         d="m 33.34375,559.49875 0,461.34565 305.375,0 0,-461.34565 z m 0.96875,0.97 303.4375,0 0,459.40625 -303.4375,0 z"
         id="path3127-1"
         sodipodi:nodetypes="cccccccccc" />
    </g>
  </g>
</svg>
