<?xml version="1.0" encoding="UTF-8" standalone="no"?>
<!-- Created with Inkscape (http://www.inkscape.org/) -->

<svg
   xmlns:dc="http://purl.org/dc/elements/1.1/"
   xmlns:cc="http://creativecommons.org/ns#"
   xmlns:rdf="http://www.w3.org/1999/02/22-rdf-syntax-ns#"
   xmlns:svg="http://www.w3.org/2000/svg"
   xmlns="http://www.w3.org/2000/svg"
   xmlns:sodipodi="http://sodipodi.sourceforge.net/DTD/sodipodi-0.dtd"
   xmlns:inkscape="http://www.inkscape.org/namespaces/inkscape"
   width="106.03533"
   height="30.367458"
   id="svg3251"
   version="1.1"
   inkscape:version="0.48.5 r10040"
   sodipodi:docname="New document 11">
  <defs
     id="defs3253" />
  <sodipodi:namedview
     id="base"
     pagecolor="#ffffff"
     bordercolor="#666666"
     borderopacity="1.0"
     inkscape:pageopacity="0.0"
     inkscape:pageshadow="2"
     inkscape:zoom="5.6"
     inkscape:cx="71.558431"
     inkscape:cy="-15.818926"
     inkscape:document-units="px"
     inkscape:current-layer="layer1"
     showgrid="false"
     fit-margin-top="0"
     fit-margin-left="0"
     fit-margin-right="0"
     fit-margin-bottom="0"
     inkscape:window-width="1366"
     inkscape:window-height="742"
     inkscape:window-x="0"
     inkscape:window-y="12"
     inkscape:window-maximized="0" />
  <metadata
     id="metadata3256">
    <rdf:RDF>
      <cc:Work
         rdf:about="">
        <dc:format>image/svg+xml</dc:format>
        <dc:type
           rdf:resource="http://purl.org/dc/dcmitype/StillImage" />
        <dc:title></dc:title>
      </cc:Work>
    </rdf:RDF>
  </metadata>
  <g
     inkscape:label="Layer 1"
     inkscape:groupmode="layer"
     id="layer1"
     transform="translate(315.87481,59.964403)">
    <g
       id="g3233"
       transform="matrix(1.25,0,0,-1.25,-444.98265,-8.5341283)">
      <path
         style="fill:#000000"
         d="m 146.0229,17.425532 c -0.0976,5.621766 -0.39155,10.68815 -0.70801,12.203917 -0.32714,1.566905 -1.20472,3.838329 -1.48296,3.838329 -0.0803,0 -0.48532,-0.141811 -0.90015,-0.315137 -1.09705,-0.458379 -3.13726,-0.311961 -3.97611,0.285349 -0.84445,0.601304 -1.27527,1.480692 -1.25363,2.558918 0.0314,1.561536 1.45257,2.51087 2.87143,1.918031 0.78566,-0.32827 1.29293,-1.001444 1.29293,-1.715792 0,-0.379834 0.17888,-0.641523 0.63972,-0.935857 0.35185,-0.224721 0.78955,-0.517622 0.97266,-0.650889 0.45657,-0.332274 0.98599,0.16764 1.68021,1.586566 0.44401,0.907533 0.54843,1.422277 0.61259,3.019744 0.0506,1.258682 0.15465,1.92565 0.30051,1.925509 0.14572,-1.41e-4 0.22885,-0.530585 0.23958,-1.528749 0.0203,-1.887029 0.5165,-3.539595 1.35359,-4.507959 l 0.62881,-0.727421 0.6737,0.498921 c 0.37054,0.274408 0.82871,0.55353 1.01817,0.620272 0.2413,0.085 0.34447,0.332351 0.34447,0.825857 0,1.802204 2.72243,2.415971 3.8126,0.859542 0.76341,-1.089927 0.10712,-3.125259 -1.25451,-3.890538 -0.88768,-0.498904 -2.96115,-0.566348 -3.73912,-0.121623 -0.27065,0.154718 -0.60054,0.284445 -0.73308,0.288281 -0.51831,0.015 -1.46194,-2.652084 -1.84305,-5.209215 -0.12909,-0.866085 -0.29572,-4.232004 -0.37031,-7.47982 -0.0778,-3.389615 -0.15454,-4.81507 -0.18004,-3.346236 z m 0.49188,12.203917 c 0.16602,0.866085 0.55613,2.181507 0.86693,2.92316 l 0.56507,1.348461 -0.40663,0.423076 c -0.49091,0.510765 -1.3327,2.238535 -1.35695,2.785124 -0.01,0.216521 -0.19163,-0.10552 -0.4045,-0.715647 -0.21287,-0.610128 -0.67252,-1.439576 -1.02144,-1.843219 l -0.63441,-0.733897 0.57143,-1.190584 c 0.31428,-0.654822 0.75697,-2.128371 0.98376,-3.274553 0.22678,-1.146183 0.43991,-1.906815 0.47361,-1.690294 0.0337,0.216521 0.19712,1.102289 0.36313,1.968373 z m -3.76297,4.202041 0.787,0.353389 -0.85826,0.567968 c -0.75354,0.498671 -0.88559,0.530895 -1.08225,0.264114 -0.57984,-0.786568 -1.90069,-0.931105 -1.8941,-0.207266 0.005,0.585331 0.33279,0.877148 1.0096,0.899702 0.7551,0.02516 0.94906,0.201969 0.80902,0.73748 -0.22738,0.8695 -1.67733,1.424107 -2.69858,1.032214 -0.38757,-0.148724 -0.89459,-1.083464 -0.89459,-1.649264 0,-0.667387 0.5618,-1.562948 1.23979,-1.976343 0.8101,-0.49395 2.50811,-0.504374 3.58237,-0.02199 z m 10.11803,-0.07852 c 1.30292,0.673766 1.70351,2.550251 0.72425,3.392579 -0.74673,0.642303 -1.93254,0.62382 -2.59684,-0.04048 -0.70912,-0.709114 -0.57867,-1.36959 0.27381,-1.386377 0.83221,-0.01639 1.40247,-0.546142 1.1027,-1.024381 -0.34025,-0.54281 -0.99513,-0.52112 -1.56819,0.05194 l -0.51741,0.517412 -0.78429,-0.519017 c -0.43136,-0.285458 -0.75163,-0.551668 -0.71173,-0.591577 0.67821,-0.6782 3.08352,-0.914209 4.0777,-0.400102 z m -11.79079,1.191085 c 0.20891,0.251728 0.15443,0.295256 -0.36958,0.295256 -0.41509,0 -0.61461,-0.09585 -0.61461,-0.295256 0,-0.162391 0.16631,-0.295256 0.36958,-0.295256 0.20326,0 0.47984,0.132865 0.61461,0.295256 z m 10.9749,-0.04921 c -0.0444,0.135326 -0.33464,0.275725 -0.64491,0.311997 -0.49539,0.05792 -0.53257,0.02794 -0.30518,-0.246047 0.3076,-0.370628 1.06746,-0.423373 0.95009,-0.06595 z M 118.83643,26.10461 c -3.78262,1.004823 -7.67666,4.151449 -7.67666,6.203219 0,0.419919 -0.0445,0.427639 -1.82075,0.315952 -3.7578,-0.236281 -6.12234,-1.709284 -5.76881,-3.593723 0.14062,-0.749559 1.21605,-1.793965 2.03251,-1.973872 0.88705,-0.195461 0.97937,-0.290172 0.19136,-0.196322 -1.39281,0.16588 -2.50781,1.360674 -2.50781,2.687287 0,0.475165 0.20176,0.826527 0.83656,1.456858 1.062,1.054522 2.47643,1.585242 4.96415,1.862639 2.08721,0.232739 2.26963,0.289091 2.26963,0.701144 0,0.414192 1.1687,1.211991 2.16521,1.478046 1.00351,0.267926 2.80969,0.14231 4.60437,-0.320226 1.28572,-0.331365 5.71839,-2.179388 7.40271,-3.086267 2.89104,-1.556607 6.55188,-3.294589 7.9373,-3.768232 1.89454,-0.647701 4.35467,-0.859987 5.85959,-0.505628 1.11017,0.261409 2.30935,0.791932 2.76689,1.224088 0.14705,0.138888 0.44416,0.383862 0.66026,0.544387 0.39162,0.290912 0.39162,0.290347 -7.9e-4,-0.17316 -1.61796,-1.9112 -5.03598,-2.497614 -8.8828,-1.52398 -2.96898,0.751457 -4.67828,1.448723 -9.85088,4.018417 -6.20235,3.081271 -8.68114,3.879265 -10.51564,3.385286 -0.90318,-0.243201 -1.94939,-1.078666 -1.94939,-1.556714 0,-0.283786 0.19482,-0.352173 1.08621,-0.381302 2.61535,-0.08546 6.75569,-1.187201 8.71427,-2.318856 2.70967,-1.565617 3.52477,-3.612052 1.79498,-4.506561 -0.70822,-0.366232 -2.88244,-0.352358 -4.31247,0.02752 z m 4.57646,0.430876 c 0.20434,0.178451 0.34447,0.57925 0.34447,0.985223 0,2.031286 -5.21666,4.394664 -11.17052,5.06074 -1.37265,0.153562 -1.40658,0.115451 -0.925,-1.039161 0.41831,-1.00294 1.31188,-1.882715 2.94258,-2.897171 3.38438,-2.105407 7.64491,-3.125806 8.80847,-2.109631 z m 44.90537,-0.46203 c -0.85489,0.372093 -1.16827,1.299616 -0.74236,2.197162 1.00652,2.12109 5.75546,4.216433 10.2849,4.537942 2.13729,0.151709 2.41977,0.400098 1.44527,1.270817 -0.88718,0.792692 -1.91063,1.017802 -3.48437,0.766396 -1.99226,-0.318265 -2.73467,-0.61846 -8.76012,-3.542138 -7.36216,-3.572284 -10.09542,-4.444843 -13.46205,-4.297598 -1.56535,0.06846 -2.01775,0.171165 -3.09925,0.703587 -0.69649,0.342882 -1.48467,0.862962 -1.75151,1.155734 -0.55205,0.605704 -0.26116,0.469897 0.92091,-0.429945 1.84419,-1.403882 5.14481,-1.635997 8.23896,-0.579402 0.86609,0.295751 3.57589,1.540528 6.02179,2.766172 7.33835,3.677265 9.56022,4.478038 12.49516,4.503324 1.63823,0.01411 1.85435,-0.03 2.61602,-0.533957 0.45664,-0.302139 0.91042,-0.760188 1.0084,-1.017888 0.151,-0.397162 0.35221,-0.486186 1.32072,-0.584343 3.45839,-0.350499 5.59805,-1.144809 6.34666,-2.35608 0.55817,-0.903141 0.526,-1.913331 -0.084,-2.638295 -0.56414,-0.670452 -1.62457,-1.226657 -2.29566,-1.204101 -0.49402,0.01661 -0.38825,0.07644 0.46902,0.265343 0.81646,0.179907 1.8919,1.224313 2.03252,1.973872 0.13405,0.71457 -0.20045,1.543634 -0.86573,2.145703 -0.74782,0.676768 -2.96895,1.334511 -4.90309,1.45195 -1.77739,0.107922 -1.82074,0.100258 -1.82074,-0.321816 0,-0.977289 -1.17116,-2.607009 -2.71839,-3.782772 -2.83041,-2.150868 -7.21875,-3.317688 -9.21304,-2.449667 z m 3.36317,0.347092 c 2.28319,0.573935 5.37512,2.144822 6.85739,3.483968 1.16926,1.056355 1.92343,2.775909 1.21748,2.775909 -0.87681,0 -4.37292,-0.644432 -5.90872,-1.089142 -2.23953,-0.648482 -3.11595,-1.03834 -4.6003,-2.046345 -1.30724,-0.887727 -1.59519,-1.27324 -1.59519,-2.135675 0,-1.288108 1.43629,-1.640542 4.02934,-0.988715 z"
         id="path3235"
         inkscape:connector-curvature="0" />
    </g>
  </g>
</svg>
