<?xml version="1.0" encoding="UTF-8" standalone="no"?>
<!-- Created with Inkscape (http://www.inkscape.org/) -->

<svg
   xmlns:dc="http://purl.org/dc/elements/1.1/"
   xmlns:cc="http://creativecommons.org/ns#"
   xmlns:rdf="http://www.w3.org/1999/02/22-rdf-syntax-ns#"
   xmlns:svg="http://www.w3.org/2000/svg"
   xmlns="http://www.w3.org/2000/svg"
   xmlns:sodipodi="http://sodipodi.sourceforge.net/DTD/sodipodi-0.dtd"
   xmlns:inkscape="http://www.inkscape.org/namespaces/inkscape"
   width="530.19836"
   height="226.20056"
   id="svg3055"
   version="1.1"
   inkscape:version="0.91 r13725"
   sodipodi:docname="logo.svg">
  <defs
     id="defs3057">
    <clipPath
       clipPathUnits="userSpaceOnUse"
       id="clipPath3278">
      <path
         inkscape:connector-curvature="0"
         d="m 209.111,77.366 32.364,0 0,64.366 -32.364,0 0,-64.366 z"
         id="path3280" />
    </clipPath>
  </defs>
  <sodipodi:namedview
     id="base"
     pagecolor="#ffffff"
     bordercolor="#666666"
     borderopacity="1.0"
     inkscape:pageopacity="0.0"
     inkscape:pageshadow="2"
     inkscape:zoom="0.98994949"
     inkscape:cx="66.60381"
     inkscape:cy="118.23192"
     inkscape:document-units="px"
     inkscape:current-layer="layer1"
     showgrid="false"
     inkscape:snap-bbox="true"
     inkscape:snap-bbox-edge-midpoints="true"
     fit-margin-top="0"
     fit-margin-left="0"
     fit-margin-right="0"
     fit-margin-bottom="0"
     inkscape:window-width="1920"
     inkscape:window-height="1174"
     inkscape:window-x="0"
     inkscape:window-y="12"
     inkscape:window-maximized="0"
     inkscape:bbox-nodes="true" />
  <metadata
     id="metadata3060">
    <rdf:RDF>
      <cc:Work
         rdf:about="">
        <dc:format>image/svg+xml</dc:format>
        <dc:type
           rdf:resource="http://purl.org/dc/dcmitype/StillImage" />
        <dc:title />
      </cc:Work>
    </rdf:RDF>
  </metadata>
  <g
     inkscape:label="Layer 1"
     inkscape:groupmode="layer"
     id="layer1"
     transform="translate(-132.04367,-144.97614)">
    <g
       id="g3441"
       style="fill:#000000"
       transform="matrix(2.8417273,0,0,2.8417273,-504.09066,-1368.4208)">
      <text
         id="text3254"
         x="223.44109"
         y="582.00446"
         style="font-size:15px;fill:#000000">
        <tspan
           id="tspan3256"
           sodipodi:role="line"
           y="582.00446"
           x="223.44109 262.21786 284.34753 309.26834 334.18918"
           style="font-size:49.84162140000000107px;font-variant:normal;font-weight:normal;font-stretch:normal;writing-mode:lr-tb;fill:#000000;fill-opacity:1;fill-rule:nonzero;stroke:none;font-family:Times New Roman;-inkscape-font-specification:TimesNewRomanPSMT">manua</tspan>
      </text>
      <text
         id="text3258"
         x="363.59946"
         y="582.00446"
         style="font-size:15px;fill:#000000">
        <tspan
           id="tspan3260"
           sodipodi:role="line"
           y="582.00446"
           x="363.59946 385.72913"
           style="font-size:49.84162140000000107px;font-variant:normal;font-weight:normal;font-stretch:normal;writing-mode:lr-tb;fill:#000000;fill-opacity:1;fill-rule:nonzero;stroke:none;font-family:Times New Roman;-inkscape-font-specification:TimesNewRomanPSMT">en</tspan>
      </text>
      <g
         id="g3274"
         transform="matrix(1.25,0,0,-1.25,75.507953,709.53709)"
         style="fill:#000000">
        <g
           clip-path="url(#clipPath3278)"
           id="g3276"
           style="fill:#000000">
          <g
             transform="translate(215.195,78.0888)"
             id="g3282"
             style="fill:#000000">
            <path
               id="path3284"
               style="fill:#000000;fill-opacity:1;fill-rule:nonzero;stroke:none"
               d="M 0,0 C -3.5958537,1.0069626 -5.8863689,2.2093512 -5.966,6.295 -5.97,7.65 -5.0407134,10.085625 -3.4667193,11.654506 -1.6949526,13.420517 -0.743,14.334 3.594,15.392 c 2.36,0.576 5.453,0.258 7.187,-0.639 0.207,-0.107 0.287,-0.22 0.307,-0.198 0.02,0.021 0.076,11.017 0.125,24.434 L 11.196,63.491 13.514,63.4 c 4.303,-0.168 6.528,-0.957 8.658,-3.076 1.835,-1.826 3.04,-4.294 3.606,-7.212 0.27,-1.395 0.324,-5.427 0.138,-5.995 -0.111,-0.34 -0.162,0.058 -0.174,0.624 -0.032,1.552 -0.634,4.123 -1.256,5.855 -1.208,3.364 -3.483,5.765 -6.406,6.567 -0.398,0.109 -1.297,0.227 -1.999,0.261 l -1.276,0.063 -0.08,-8.784 C 14.681,46.872 14.752,36 14.751,27.646 14.751,11.168 14.715,10.77 14.067,8.344 13.252,5.297 11.267,2.676 8.683,1.299 7.825,0.842 5.967,0.238 4.799,0.015 3.637,-0.207 1.377,-0.278 0.277,-0.043 z"
               inkscape:connector-curvature="0"
               sodipodi:nodetypes="ccsccccccccccccccscccccc" />
          </g>
        </g>
      </g>
    </g>
    <text
       xml:space="preserve"
       style="font-size:22.13624001px;font-style:normal;font-variant:normal;font-weight:normal;font-stretch:normal;text-align:end;line-height:125%;letter-spacing:0px;word-spacing:0px;text-anchor:end;fill:#000000;fill-opacity:1;stroke:none;font-family:Times New Roman;-inkscape-font-specification:Times New Roman"
       x="842.82324"
       y="312.16809"
       id="text3090-7"
       sodipodi:linespacing="125%"><tspan
         sodipodi:role="line"
         id="tspan3092-8"
         x="842.82324"
         y="312.16809" /></text>
    <text
       xml:space="preserve"
       style="font-size:22.00083542px;font-style:normal;font-variant:normal;font-weight:normal;font-stretch:normal;text-align:start;line-height:125%;letter-spacing:0px;word-spacing:0px;text-anchor:start;fill:#000000;fill-opacity:1;stroke:none;font-family:Times New Roman;-inkscape-font-specification:Times New Roman"
       x="132.19843"
       y="308.30069"
       id="text3090-7-8"
       sodipodi:linespacing="125%"><tspan
         sodipodi:role="line"
         id="tspan3092-8-7"
         x="132.19843"
         y="308.30069">SVERIGES DATAVETARES SÅNGBOK</tspan></text>
    <text
       xml:space="preserve"
       style="font-style:normal;font-variant:normal;font-weight:normal;font-stretch:normal;font-size:22.04747963px;line-height:125%;font-family:'Times New Roman';-inkscape-font-specification:'Times New Roman';text-align:end;letter-spacing:0px;word-spacing:0px;text-anchor:end;fill:#000000;fill-opacity:1;stroke:none"
       x="662.98041"
       y="308.29999"
       id="text3090-7-8-5"
       sodipodi:linespacing="125%"><tspan
         sodipodi:role="line"
         id="tspan3092-8-7-1"
         x="662.98041"
         y="308.29999">VERSION 3.0</tspan></text>
  </g>
</svg>
